<svg width="21" height="17" viewBox="0 0 21 17" fill="none" xmlns="http://www.w3.org/2000/svg">
<path id="Vector" d="M20.1842 2.8278C19.5569 3.09801 18.8975 3.28617 18.2221 3.38762C18.5379 3.33345 19.0025 2.7646 19.1874 2.53435C19.4683 2.18704 19.6824 1.79056 19.8189 1.36504C19.8189 1.33344 19.8504 1.28829 19.8189 1.26572C19.8029 1.25703 19.7851 1.25247 19.767 1.25247C19.7489 1.25247 19.731 1.25703 19.7151 1.26572C18.9818 1.6632 18.2013 1.96657 17.3922 2.16866C17.364 2.17728 17.334 2.17805 17.3054 2.1709C17.2768 2.16374 17.2506 2.14892 17.2298 2.12803C17.1668 2.05296 17.099 1.98208 17.0268 1.91583C16.6968 1.61987 16.3224 1.37764 15.9173 1.198C15.3704 0.973428 14.7797 0.876171 14.1897 0.913573C13.6173 0.949757 13.0584 1.10343 12.5479 1.36504C12.0451 1.64086 11.6033 2.01556 11.2489 2.46663C10.8761 2.9309 10.6069 3.46969 10.4595 4.04677C10.338 4.59569 10.3242 5.16302 10.4189 5.71721C10.4189 5.81201 10.4189 5.82556 10.3377 5.81201C7.12175 5.33797 4.4831 4.19575 2.32707 1.74428C2.23235 1.63592 2.18273 1.63592 2.10605 1.74428C1.16786 3.17092 1.62343 5.42827 2.79616 6.54339C2.95403 6.69238 3.11641 6.83685 3.28781 6.97229C2.75012 6.93408 2.22556 6.78824 1.74521 6.54339C1.655 6.4847 1.60538 6.51631 1.60087 6.62466C1.58809 6.77488 1.58809 6.92591 1.60087 7.07613C1.69499 7.79604 1.97844 8.47801 2.42224 9.05232C2.86604 9.62662 3.45427 10.0726 4.12676 10.3448C4.2907 10.4151 4.46152 10.468 4.63645 10.5028C4.13868 10.6009 3.62816 10.6161 3.12543 10.5479C3.01718 10.5254 2.97658 10.584 3.01718 10.6879C3.68022 12.4938 5.11908 13.0446 6.17454 13.3516C6.31888 13.3741 6.46321 13.3741 6.62559 13.4102C6.62559 13.4102 6.62559 13.4102 6.59853 13.4373C6.2873 14.0062 5.02887 14.3899 4.45152 14.5886C3.39772 14.9675 2.27416 15.1123 1.15884 15.013C0.982934 14.9859 0.942339 14.9904 0.897234 15.013C0.852128 15.0355 0.897234 15.0852 0.946849 15.1303C1.17238 15.2793 1.3979 15.4103 1.63245 15.5367C2.3307 15.9179 3.06889 16.2207 3.83358 16.4396C7.79382 17.5322 12.2502 16.7285 15.2226 13.7714C17.5591 11.4509 18.38 8.24995 18.38 5.04452C18.38 4.92262 18.5288 4.85038 18.6145 4.78718C19.2057 4.32618 19.7268 3.78175 20.1617 3.17092C20.237 3.07987 20.2756 2.96393 20.2699 2.84586C20.2699 2.77814 20.2699 2.79169 20.1842 2.8278Z" fill="white"/>
</svg>
