<svg width="150" height="85" viewBox="0 0 150 85" fill="none" xmlns="http://www.w3.org/2000/svg">
<g id="620cad38e924f08454d48388_logo-9%201%20(1).svg" opacity="0.6">
<path id="Vector" d="M74.9446 46.9661H70.6553V35.3647H74.9446V46.9661ZM71.0742 46.5424H74.5257V35.7885H71.0742V46.5424ZM80.9133 46.9661H76.7097V35.3647H85.4912C86.7492 35.2616 88.0019 35.6189 89.0214 36.3716C89.4602 36.7778 89.8005 37.2812 90.0157 37.8423C90.2303 38.4035 90.3141 39.0073 90.2606 39.6068C90.3231 40.6424 89.9977 41.6639 89.3481 42.4673C88.58 43.3589 87.3014 43.8183 85.5492 43.8344C85.1078 43.8463 81.7993 43.8344 80.9152 43.8344L80.9133 46.9661ZM77.1266 46.5424H80.4944V43.4064H80.7045C80.747 43.4064 85.0421 43.4199 85.5389 43.4064C87.1719 43.392 88.3454 42.9826 89.0317 42.1833C89.6098 41.4565 89.8965 40.5367 89.836 39.6059C89.8875 39.0688 89.816 38.527 89.6272 38.0224C89.4383 37.5178 89.1367 37.064 88.7469 36.6962C87.8015 36.0098 86.6448 35.6876 85.4854 35.7876H77.1285L77.1266 46.5424ZM84.6013 41.2281H80.4654V38.0701H84.629C84.9241 38.0289 85.2251 38.0637 85.5035 38.1714C85.7819 38.2791 86.0287 38.4562 86.2207 38.6863C86.3954 38.9803 86.4779 39.3211 86.4572 39.6635C86.4727 39.9814 86.405 40.2979 86.26 40.5806C86.0616 40.8229 85.8044 41.0094 85.5144 41.1222C85.2238 41.2351 84.9093 41.2703 84.6013 41.2248V41.2281ZM80.8843 40.8044H84.6013C85.2882 40.8044 85.7142 40.6594 85.9024 40.3611C86.0061 40.1442 86.0532 39.9041 86.039 39.6635C86.0577 39.411 86.0036 39.1585 85.883 38.9363L85.8785 38.9287C85.6788 38.6321 85.2824 38.4939 84.629 38.4939H80.8843V40.8044ZM97.9048 47.1374C94.1433 47.1374 91.8981 46.1923 91.043 44.2489C90.9031 43.8735 90.8077 43.4825 90.7601 43.0843L90.7233 42.8402H95.1982L95.2279 43.0182C95.262 43.1989 95.338 43.369 95.4489 43.5149C95.6255 43.731 96.2151 44.0938 98.1722 44.0938C100.525 44.0938 100.525 43.6759 100.525 43.4513C100.525 43.0724 100.252 42.9428 98.334 42.736L97.9699 42.7012C97.2475 42.6326 96.3343 42.5453 95.9174 42.5088C92.3988 42.1867 90.8277 41.0807 90.8277 38.9236C90.8277 36.6581 93.5008 35.1943 97.6386 35.1943C101.014 35.1943 103.189 36.0944 104.101 37.8718C104.317 38.2852 104.463 38.7329 104.531 39.1957L104.56 39.4339H100.08L100.062 39.2423C100.044 39.0926 99.9805 38.9522 99.8806 38.8406C99.713 38.6134 99.1833 38.2379 97.54 38.2379C95.5217 38.2379 95.2433 38.499 95.2433 38.7804C95.2433 39.1559 95.8813 39.2889 97.9241 39.5101C98.776 39.5805 100.146 39.7229 100.615 39.7805C103.565 40.1043 104.881 41.1832 104.881 43.2801C104.882 45.0388 103.671 47.1374 97.9048 47.1374ZM91.2124 43.264C91.2543 43.5435 91.3265 43.8175 91.4277 44.081C92.2068 45.8516 94.3263 46.7136 97.9048 46.7136C100.897 46.7136 104.466 46.1203 104.466 43.2801C104.466 41.4214 103.301 40.5009 100.571 40.2017C100.102 40.1441 98.7406 40.0026 97.89 39.9314C95.7118 39.6924 94.8264 39.5652 94.8264 38.7804C94.8264 37.9684 95.7808 37.8142 97.5413 37.8142C98.9333 37.8142 99.8316 38.0684 100.213 38.5812C100.317 38.7075 100.395 38.8532 100.444 39.0101H104.075C104.002 38.6823 103.886 38.3657 103.732 38.0684C102.894 36.442 100.847 35.6181 97.6406 35.6181C93.7573 35.6181 91.2485 36.9157 91.2485 38.9236C91.2485 40.8391 92.6566 41.785 95.9554 42.0867C96.3743 42.1232 97.2868 42.2105 98.0105 42.28L98.3778 42.3147C100.16 42.5046 100.945 42.6232 100.945 43.4513C100.945 44.3429 99.9289 44.5175 98.1742 44.5175C96.5502 44.5175 95.5249 44.2709 95.1286 43.7852C95.0068 43.6303 94.9146 43.4535 94.8573 43.264H91.2124ZM112.84 47.1229C108.467 47.1229 106.054 45.3337 106.054 42.0842V35.3647H110.286V42.0842C110.286 43.1987 111.272 43.8378 112.991 43.8378C114.633 43.8378 115.652 43.1708 115.652 42.0986V35.3647H119.841V42.4402C119.845 45.416 117.29 47.1229 112.837 47.1229H112.84ZM106.473 35.7885V42.0842C106.473 46.0999 110.459 46.6992 112.84 46.6992C115.301 46.6992 119.429 46.1457 119.429 42.4402V35.7885H116.078V42.0986C116.078 43.4123 114.868 44.2616 112.997 44.2616C111.042 44.2616 109.874 43.4479 109.874 42.0842V35.7885H106.473ZM137.591 46.9661H133.597V41.7282L131.331 46.9661H127.847L125.605 41.7384V46.9661H121.596V35.3647H126.87L129.609 41.7613L132.481 35.3647H137.596L137.591 46.9661ZM134.016 46.5424H137.172V35.7885H132.747L129.596 42.8055L126.591 35.7885H122.012V46.5424H125.183V39.6991L128.115 46.5449H131.048L134.011 39.7093L134.016 46.5424ZM16.6047 35.5766H12.7896V46.7543H23.3318V43.7785H16.6047V35.5766ZM31.0324 35.3223C26.1626 35.3223 23.6016 37.6574 23.6016 41.0858C23.6016 44.9591 26.2899 46.9238 31.0324 46.9238C36.2533 46.9238 38.449 44.6455 38.449 41.0858C38.449 37.4709 35.9718 35.3206 31.0324 35.3206V35.3223ZM31.0182 38.2269C31.3497 38.2253 31.681 38.2448 32.0101 38.2854L27.7451 42.6003C27.5432 42.1385 27.4448 41.6372 27.4569 41.1324C27.4569 39.3788 28.3298 38.2252 31.0182 38.2252V38.2269ZM31.0324 44.0649C30.713 44.0663 30.3938 44.0483 30.0765 44.0107L34.3491 39.6881C34.5434 40.1423 34.6363 40.6343 34.6214 41.129C34.6214 42.8351 33.8171 44.0632 31.0324 44.0632V44.0649ZM46.0081 42.5393H49.9346C49.8768 42.815 49.7564 43.0732 49.5827 43.2937C48.7687 43.9646 47.7298 44.291 46.6833 44.2048C46.1565 44.2618 45.6238 44.2035 45.1212 44.0341C44.6187 43.8646 44.158 43.5878 43.7704 43.2225C43.3734 42.6333 43.1848 41.9258 43.2351 41.2146C43.1709 40.4693 43.3759 39.7258 43.8123 39.1219C44.361 38.4947 45.2901 38.2244 46.6557 38.2244C47.5245 38.1516 48.3923 38.3773 49.1186 38.8651C49.3475 39.0491 49.5187 39.2964 49.6112 39.5771H53.2529C53.2264 39.1147 53.1165 38.6611 52.9287 38.2388C52.0566 36.4445 50.0293 35.3766 46.5819 35.3766C43.5836 35.3766 41.5713 36.3021 40.4596 37.698C39.7254 38.7061 39.3485 39.9351 39.3898 41.1866C39.3423 42.4664 39.7095 43.7268 40.4354 44.776C41.5336 46.2169 43.4898 46.9255 45.8405 46.9255C47.4034 47.0357 48.9555 46.5928 50.2312 45.6728L50.33 46.7543H53.3552V40.1331H46.0081V42.5393ZM61.9412 35.3198C57.0722 35.3198 54.5104 37.6548 54.5104 41.0832C54.5104 44.9566 57.1979 46.9212 61.9412 46.9212C67.1632 46.9212 69.3587 44.643 69.3587 41.0832C69.3587 37.4709 66.8816 35.3206 61.9412 35.3206V35.3198ZM61.9278 38.2244C62.2507 38.2234 62.5732 38.242 62.8937 38.2803L58.6455 42.5809C58.45 42.1241 58.3549 41.6299 58.3665 41.1324C58.3632 39.3788 59.2395 38.2252 61.9278 38.2252V38.2244ZM61.9412 44.0624C61.6134 44.0638 61.2858 44.0445 60.9603 44.0048L65.2473 39.6669C65.4484 40.1272 65.545 40.6275 65.5296 41.1307C65.5308 42.8351 64.7301 44.0632 61.9412 44.0632V44.0624Z" fill="#FF6347"/>
</g>
</svg>
