<svg width="150" height="86" viewBox="0 0 150 86" fill="none" xmlns="http://www.w3.org/2000/svg">
<g id="620cad38e924f05e29d48387_logo-2%201.svg" opacity="0.6">
<path id="Vector" d="M45.4394 39.6112C45.741 39.6112 45.8415 39.7214 45.8415 40.018V46.7305H49.251C49.5442 46.7305 49.6531 46.8407 49.6531 47.1373V47.7306C49.6531 48.0272 49.5442 48.1374 49.251 48.1374H44.7608C44.4676 48.1374 44.3503 48.0272 44.3503 47.7306V40.018C44.3503 39.7214 44.4676 39.6112 44.7608 39.6112H45.4394Z" fill="#FF6347"/>
<path id="Vector_2" d="M52.6274 42.5695C52.6274 40.6117 53.8505 39.4337 55.9783 39.4337C58.1062 39.4337 59.3292 40.6117 59.3292 42.5695V45.1799C59.3292 47.1378 58.0978 48.3158 55.9783 48.3158C53.8589 48.3158 52.6274 47.1378 52.6274 45.1799V42.5695ZM57.9219 42.5695C57.9219 41.4677 57.2433 40.8745 56.0202 40.8745C54.7971 40.8745 54.127 41.4762 54.127 42.5695V45.1969C54.127 46.3072 54.7971 46.892 56.0202 46.892C57.2433 46.892 57.9219 46.2817 57.9219 45.1969V42.5695Z" fill="#FF6347"/>
<path id="Vector_3" d="M69.3069 43.4676C69.6336 43.4676 69.709 43.5778 69.709 43.8745V45.4848C69.718 45.8641 69.6426 46.2406 69.4892 46.5866C69.3352 46.9328 69.1071 47.2397 68.821 47.485C68.1102 48.0574 67.2145 48.3415 66.3078 48.2817C64.138 48.2817 62.9568 47.1036 62.9568 45.1458V42.5184C62.9568 40.586 64.1799 39.3995 66.3078 39.3995C67.9833 39.3995 69.0723 40.069 69.533 41.4081C69.5588 41.4584 69.5724 41.5141 69.573 41.5708C69.5743 41.6275 69.562 41.6835 69.5376 41.7345C69.5131 41.7855 69.477 41.8301 69.4325 41.8646C69.3881 41.8992 69.3365 41.9228 69.2817 41.9336L68.6283 42.1624C68.3435 42.2641 68.2262 42.2048 68.1257 41.9082C67.9865 41.5462 67.7326 41.2412 67.4033 41.0417C67.074 40.8422 66.6887 40.7594 66.3078 40.8064C65.0764 40.8064 64.406 41.4081 64.406 42.5015V45.1966C64.406 46.3069 65.0847 46.8917 66.3078 46.8917C67.5309 46.8917 68.2848 46.3238 68.2848 45.4933V44.8661H66.467C66.1654 44.8661 66.0565 44.7474 66.0565 44.4508V43.8745C66.0565 43.5778 66.1654 43.4676 66.467 43.4676H69.3069Z" fill="#FF6347"/>
<path id="Vector_4" d="M73.1689 42.5695C73.1689 40.6117 74.392 39.4337 76.5198 39.4337C78.6477 39.4337 79.8707 40.6117 79.8707 42.5695V45.1799C79.8707 47.1378 78.6393 48.3158 76.5198 48.3158C74.4004 48.3158 73.1689 47.1378 73.1689 45.1799V42.5695ZM78.455 42.5695C78.455 41.4677 77.7764 40.8745 76.5617 40.8745C75.347 40.8745 74.6601 41.4762 74.6601 42.5695V45.1969C74.6601 46.3072 75.3387 46.892 76.5617 46.892C77.7848 46.892 78.455 46.2817 78.455 45.1969V42.5695Z" fill="#FF6347"/>
<path id="Vector_5" d="M83.8174 39.8571C83.8174 39.6707 83.876 39.6113 84.0603 39.6113H84.4457C84.63 39.6113 84.6719 39.6707 84.6719 39.8571V47.8918C84.6719 48.0782 84.6719 48.1375 84.4457 48.1375H84.0603C83.876 48.1375 83.8174 48.0782 83.8174 47.8918V39.8571Z" fill="#FF6347"/>
<path id="Vector_6" d="M92.3027 39.6115C93.0006 39.6115 93.6695 39.8918 94.1631 40.3909C94.6561 40.8901 94.9332 41.5669 94.9332 42.2728C94.9332 42.9786 94.6561 43.6554 94.1631 44.1546C93.6695 44.6536 93.0006 44.934 92.3027 44.934H89.7895V47.8919C89.7895 48.0784 89.7476 48.1377 89.5717 48.1377H89.178C89.0021 48.1377 88.9351 48.0784 88.9351 47.8919V39.8573C88.9351 39.6708 89.0021 39.6115 89.178 39.6115H92.3027ZM92.2273 44.095C92.467 44.095 92.7048 44.0471 92.9265 43.9543C93.1482 43.8614 93.3492 43.7254 93.5187 43.5538C93.6882 43.3822 93.8229 43.1785 93.915 42.9544C94.0065 42.7302 94.0535 42.4899 94.0535 42.2473C94.0535 42.0047 94.0065 41.7644 93.915 41.5402C93.8229 41.3161 93.6882 41.1124 93.5187 40.9408C93.3492 40.7693 93.1482 40.6332 92.9265 40.5403C92.7048 40.4475 92.467 40.3997 92.2273 40.3997H89.7141V44.095H92.2273Z" fill="#FF6347"/>
<path id="Vector_7" d="M101.476 39.442C102.123 39.3698 102.775 39.5106 103.337 39.8434C103.898 40.1763 104.339 40.6834 104.592 41.2896C104.659 41.4252 104.592 41.5354 104.458 41.6032L104.089 41.7727C103.939 41.832 103.88 41.8236 103.788 41.6625C103.598 41.2126 103.272 40.8355 102.857 40.5856C102.441 40.3358 101.957 40.2261 101.476 40.2726C100.06 40.2726 99.2892 40.8404 99.2892 41.8575C99.2815 42.1683 99.3846 42.4716 99.5799 42.7115C99.7758 42.9514 100.05 43.1116 100.353 43.1627C100.804 43.3113 101.271 43.4025 101.744 43.4339C102.317 43.4648 102.881 43.5819 103.419 43.7814C103.832 43.9135 104.187 44.1853 104.425 44.551C104.664 44.9168 104.77 45.3543 104.726 45.79C104.726 47.3749 103.587 48.3326 101.492 48.3326C100.806 48.4121 100.113 48.2511 99.529 47.8763C98.9451 47.5016 98.5057 46.9358 98.284 46.2731C98.2692 46.2429 98.2614 46.2098 98.2608 46.1761C98.2601 46.1424 98.2666 46.1089 98.2808 46.0782C98.2943 46.0474 98.3143 46.02 98.3394 45.9981C98.3645 45.9761 98.3948 45.9601 98.4264 45.9511L98.795 45.8155C98.824 45.8035 98.8556 45.7977 98.8871 45.7985C98.9181 45.7994 98.949 45.8069 98.9774 45.8204C99.0057 45.8339 99.0308 45.8533 99.0515 45.8773C99.0721 45.9012 99.0876 45.9292 99.0966 45.9595C99.2841 46.4383 99.6172 46.8443 100.048 47.1186C100.479 47.3929 100.985 47.5213 101.492 47.4851C103.076 47.4851 103.855 46.9257 103.855 45.79C103.87 45.4915 103.779 45.1973 103.6 44.9599C103.421 44.7225 103.163 44.5571 102.875 44.4933C102.442 44.3625 101.994 44.2829 101.543 44.256L100.638 44.1373C100.355 44.0765 100.075 44.0001 99.8003 43.9085C99.529 43.8255 99.2757 43.6902 99.0547 43.5102C98.833 43.3066 98.6577 43.056 98.5417 42.7763C98.4257 42.4965 98.3723 42.1944 98.3845 41.8914C98.4431 40.4082 99.5406 39.442 101.476 39.442Z" fill="#FF6347"/>
<path id="Vector_8" d="M109.242 45.2391C109.277 45.8385 109.538 46.4015 109.97 46.8132C110.402 47.2248 110.973 47.454 111.567 47.454C112.16 47.454 112.731 47.2248 113.163 46.8132C113.595 46.4015 113.856 45.8385 113.891 45.2391V39.8573C113.891 39.6708 113.95 39.6115 114.134 39.6115H114.519C114.704 39.6115 114.762 39.6708 114.762 39.8573V45.2307C114.762 47.1546 113.64 48.3156 111.571 48.3156C109.501 48.3156 108.379 47.1546 108.379 45.2307V39.8573C108.379 39.6708 108.438 39.6115 108.613 39.6115H109.007C109.183 39.6115 109.242 39.6708 109.242 39.8573V45.2391Z" fill="#FF6347"/>
<path id="Vector_9" d="M126.324 39.6115C126.508 39.6115 126.567 39.6708 126.567 39.8573V47.8919C126.567 48.0784 126.508 48.1377 126.324 48.1377H125.972C125.796 48.1377 125.737 48.0784 125.737 47.8919V43.0016C125.737 42.2901 125.785 41.5794 125.88 40.8743H125.829C125.568 41.5191 125.263 42.1449 124.916 42.7474L123.115 45.9595C123.093 46.0153 123.055 46.0629 123.006 46.0962C122.957 46.1295 122.898 46.1469 122.839 46.146H122.604C122.544 46.1463 122.485 46.1288 122.435 46.0957C122.384 46.0626 122.344 46.0153 122.319 45.9595L120.493 42.7135C120.169 42.1196 119.889 41.502 119.655 40.8658H119.605C119.691 41.5774 119.736 42.2934 119.739 43.0101V47.8919C119.739 48.0784 119.68 48.1377 119.496 48.1377H119.169C118.985 48.1377 118.927 48.0784 118.927 47.8919V39.8573C118.927 39.6708 118.985 39.6115 119.169 39.6115H119.471C119.54 39.605 119.61 39.6203 119.67 39.6552C119.729 39.6901 119.777 39.7429 119.806 39.8064L122.738 45.0781L125.653 39.8573C125.746 39.6793 125.796 39.6539 125.98 39.6539L126.324 39.6115Z" fill="#FF6347"/>
<path id="Vector_10" d="M30.536 46.2564V52.3843C30.536 52.6192 30.4438 52.8445 30.2796 53.0106C30.1154 53.1767 29.8927 53.27 29.6605 53.27C29.4283 53.27 29.2057 53.1767 29.0415 53.0106C28.8774 52.8445 28.7851 52.6192 28.7851 52.3843V46.2649C29.0289 46.445 29.3211 46.5455 29.6228 46.5531C29.9518 46.5626 30.274 46.4579 30.536 46.2564ZM37.992 44.485C37.7698 44.485 37.5567 44.5744 37.3996 44.7332C37.2425 44.8922 37.1542 45.1078 37.1542 45.3326V46.4005C37.1542 46.6354 37.2465 46.8607 37.4106 47.0268C37.5748 47.1929 37.7975 47.2862 38.0297 47.2862C38.2619 47.2862 38.4846 47.1929 38.6487 47.0268C38.8129 46.8607 38.9051 46.6354 38.9051 46.4005V45.375C38.9117 45.2534 38.8922 45.1319 38.8482 45.0187C38.8041 44.9054 38.7365 44.8031 38.6498 44.7186C38.5632 44.6342 38.4596 44.5696 38.3461 44.5293C38.2325 44.489 38.1118 44.4739 37.992 44.485ZM26.8834 48.5788C26.582 48.5696 26.2901 48.4692 26.0456 48.2906V54.4354C26.0456 54.6714 26.1383 54.8978 26.3033 55.0647C26.4682 55.2316 26.692 55.3254 26.9253 55.3254C27.1586 55.3254 27.3823 55.2316 27.5473 55.0647C27.7122 54.8978 27.8049 54.6714 27.8049 54.4354V48.333C27.5314 48.5119 27.2086 48.5979 26.8834 48.5788ZM35.2609 42.6458C35.1474 42.6401 35.034 42.6578 34.9275 42.6977C34.821 42.7377 34.7236 42.7993 34.6413 42.8786C34.559 42.9579 34.4935 43.0532 34.4488 43.1589C34.4041 43.2646 34.3811 43.3784 34.3813 43.4934V48.2143C34.3813 48.4503 34.474 48.6767 34.6389 48.8436C34.8039 49.0105 35.0276 49.1043 35.2609 49.1043C35.4942 49.1043 35.718 49.0105 35.8829 48.8436C36.0479 48.6767 36.1405 48.4503 36.1405 48.2143V43.5527C36.1472 43.4304 36.1277 43.308 36.0831 43.1941C36.0385 43.0802 35.9702 42.9774 35.8825 42.8929C35.7949 42.8083 35.6903 42.7439 35.5757 42.7042C35.4612 42.6645 35.3395 42.6503 35.219 42.6628L35.2609 42.6458ZM32.4796 44.4596C32.1641 44.4574 31.8569 44.3568 31.5999 44.1714V50.3332C31.5999 50.5692 31.6926 50.7956 31.8576 50.9625C32.0225 51.1294 32.2463 51.2232 32.4796 51.2232C32.7129 51.2232 32.9366 51.1294 33.1016 50.9625C33.2665 50.7956 33.3592 50.5692 33.3592 50.3332V44.1799C33.0934 44.3802 32.769 44.4846 32.4377 44.4766L32.4796 44.4596ZM24.9817 49.1805V31.9665C24.9795 31.7566 24.8956 31.5562 24.7482 31.4086C24.6007 31.261 24.4016 31.1783 24.1942 31.1783H24.0099C23.8025 31.1783 23.6035 31.261 23.456 31.4086C23.3086 31.5562 23.2247 31.7566 23.2224 31.9665V49.1805C23.2224 49.3918 23.3054 49.5945 23.4531 49.7439C23.6008 49.8933 23.801 49.9772 24.0099 49.9772H24.1942C24.4031 49.9772 24.6034 49.8933 24.7511 49.7439C24.8988 49.5945 24.9817 49.3918 24.9817 49.1805ZM26.9755 47.9261H26.7912C26.5824 47.9261 26.3821 47.8422 26.2344 47.6928C26.0867 47.5434 26.0037 47.3407 26.0037 47.1294V34.0176C26.006 33.8078 26.0899 33.6073 26.2374 33.4597C26.3848 33.3121 26.5839 33.2294 26.7912 33.2294H26.9755C27.183 33.2294 27.382 33.3121 27.5295 33.4597C27.6769 33.6073 27.7608 33.8078 27.763 34.0176V47.1464C27.763 47.3577 27.6801 47.5603 27.5324 47.7098C27.3847 47.8591 27.1844 47.9431 26.9755 47.9431V47.9261ZM29.7485 45.9089H29.5558C29.3492 45.9089 29.1511 45.8259 29.0049 45.6781C28.8588 45.5303 28.7767 45.3297 28.7767 45.1207V36.0518C28.7756 35.9475 28.7949 35.8441 28.8336 35.7475C28.8723 35.6509 28.9295 35.563 29.0019 35.4889C29.0744 35.4148 29.1607 35.356 29.2557 35.3158C29.3508 35.2757 29.4528 35.2551 29.5558 35.2551H29.7485C29.9559 35.2573 30.1541 35.3422 30.2999 35.4914C30.4458 35.6406 30.5277 35.8419 30.5276 36.0518V45.1207C30.5276 45.3297 30.4456 45.5303 30.2994 45.6781C30.1533 45.8259 29.9552 45.9089 29.7485 45.9089ZM32.5215 43.8324H32.3455C32.1382 43.8324 31.9391 43.7496 31.7916 43.6021C31.6442 43.4545 31.5603 43.254 31.558 43.0442V38.1622C31.5512 38.0534 31.5665 37.9443 31.603 37.8417C31.6394 37.7391 31.6963 37.6451 31.7702 37.5657C31.844 37.4862 31.9332 37.4229 32.0321 37.3798C32.1311 37.3366 32.2378 37.3144 32.3455 37.3146H32.5298C32.7387 37.3146 32.939 37.3986 33.0867 37.548C33.2344 37.6974 33.3173 37.9001 33.3173 38.1114V43.0272C33.3185 43.1326 33.2989 43.2371 33.2598 43.3347C33.2207 43.4324 33.1629 43.5212 33.0896 43.5961C33.0164 43.6709 32.9292 43.7304 32.8332 43.7709C32.7371 43.8115 32.634 43.8324 32.5298 43.8324H32.5215ZM35.3028 42.0101H35.1185C34.9096 42.0101 34.7093 41.9262 34.5617 41.7768C34.414 41.6274 34.331 41.4247 34.331 41.2134V39.9506C34.3333 39.7408 34.4172 39.5403 34.5646 39.3927C34.712 39.2451 34.9111 39.1623 35.1185 39.1623H35.3028C35.5102 39.1623 35.7093 39.2451 35.8567 39.3927C36.0042 39.5403 36.0881 39.7408 36.0903 39.9506V41.2134C36.0903 41.4232 36.0085 41.6246 35.8626 41.7738C35.7168 41.923 35.5186 42.0079 35.3112 42.0101H35.3028Z" fill="#FF6347"/>
</g>
</svg>
