<svg width="150" height="86" viewBox="0 0 150 86" fill="none" xmlns="http://www.w3.org/2000/svg">
<g id="620cad38e924f037c0d4830b_logo-8%202.svg" opacity="0.6">
<g id="Group" opacity="0.5">
<path id="Vector" d="M35.3261 42.0238C35.0074 42.3481 34.7633 42.7397 34.6113 43.1704C34.4592 43.6012 34.4029 44.0605 34.4465 44.5158L34.4313 44.5005C34.476 45.0364 34.4046 45.5756 34.222 46.0807C34.0395 46.5858 33.7502 47.0444 33.3743 47.4246C32.9985 47.805 32.5451 48.0976 32.0459 48.2823C31.5466 48.4671 31.0135 48.5393 30.4839 48.4941L30.4991 48.5094C29.8655 48.4498 29.2291 48.5892 28.6767 48.9089C28.1243 49.2285 27.6829 49.7127 27.4125 50.2955C27.1421 50.8782 27.056 51.5313 27.1658 52.1653C27.2756 52.7994 27.5761 53.3838 28.0263 53.8389C28.4764 54.2939 29.0543 54.5973 29.6812 54.7079C30.3081 54.8184 30.9535 54.7307 31.5292 54.4567C32.105 54.1825 32.5832 53.7355 32.8987 53.1763C33.214 52.6172 33.3514 51.9733 33.2919 51.3324L33.3078 51.3477C33.2631 50.8118 33.3345 50.2724 33.517 49.7675C33.6996 49.2624 33.9889 48.8037 34.3648 48.4234C34.7407 48.0432 35.1941 47.7504 35.6932 47.5658C36.1925 47.3811 36.7255 47.3088 37.2552 47.354L37.2393 47.3387C37.7568 47.3858 38.2777 47.3 38.7537 47.0892C39.2298 46.8782 39.6455 46.5493 39.9624 46.1326C40.2793 45.716 40.4871 45.2251 40.5665 44.7055C40.646 44.186 40.5945 43.6546 40.4169 43.1605C40.2393 42.6664 39.9413 42.2257 39.5505 41.8792C39.1597 41.5326 38.6888 41.2915 38.1814 41.1782C37.6739 41.0649 37.1465 41.0829 36.6477 41.2307C36.149 41.3785 35.6953 41.6513 35.3286 42.0238H35.3261Z" fill="#FF6347"/>
<path id="Vector_2" d="M29.1225 46.5036L29.1065 46.4883C29.5567 46.5342 30.0114 46.4783 30.4376 46.3246C30.8638 46.171 31.251 45.9234 31.571 45.5998C31.891 45.2762 32.1361 44.8848 32.2883 44.4537C32.4405 44.0226 32.4961 43.5627 32.451 43.1071L32.467 43.1224C32.4224 42.5866 32.4937 42.0473 32.6763 41.5422C32.8589 41.0371 33.1482 40.5784 33.524 40.1981C33.8999 39.8178 34.3533 39.5251 34.8526 39.3404C35.3518 39.1557 35.8848 39.0835 36.4145 39.1287L36.3986 39.1133C37.0322 39.1736 37.6688 39.0345 38.2215 38.7153C38.7742 38.396 39.2161 37.912 39.4869 37.3293C39.7577 36.7465 39.8442 36.0936 39.7347 35.4592C39.6252 34.8249 39.325 34.2403 38.875 33.785C38.4249 33.3296 37.847 33.0259 37.22 32.9151C36.5931 32.8043 35.9476 32.8918 35.3717 33.1658C34.7957 33.4398 34.3173 33.8869 34.0017 34.446C33.6862 35.0052 33.5487 35.6493 33.6082 36.2903L33.5931 36.2741C33.6379 36.8101 33.5666 37.3495 33.3841 37.8546C33.2016 38.3598 32.9123 38.8185 32.5364 39.1988C32.1604 39.5791 31.7071 39.8719 31.2077 40.0565C30.7085 40.2412 30.1753 40.3133 29.6456 40.2679L29.6607 40.2841C29.2105 40.2382 28.7558 40.2941 28.3296 40.4477C27.9034 40.6014 27.5162 40.849 27.1962 41.1725C26.8761 41.4961 26.6311 41.8876 26.4789 42.3187C26.3267 42.7499 26.2711 43.2098 26.3161 43.6652L26.301 43.6499C26.3456 44.1859 26.2741 44.7251 26.0914 45.2301C25.9088 45.7351 25.6194 46.1937 25.2436 46.5739C24.8678 46.9543 24.4145 47.2469 23.9153 47.4317C23.4161 47.6165 22.8831 47.6888 22.3535 47.6437L22.3686 47.659C21.735 47.5988 21.0984 47.7379 20.5457 48.0571C19.993 48.3764 19.5511 48.8604 19.2803 49.4431C19.0095 50.0258 18.923 50.6789 19.0325 51.3131C19.142 51.9475 19.4422 52.5322 19.8922 52.9874C20.3423 53.4427 20.9202 53.7465 21.5472 53.8573C22.1741 53.9681 22.8196 53.8805 23.3955 53.6066C23.9715 53.3326 24.4499 52.8855 24.7655 52.3264C25.081 51.7672 25.2185 51.1232 25.159 50.482L25.1749 50.4974C25.1303 49.9615 25.2017 49.4222 25.3842 48.9171C25.5668 48.412 25.8561 47.9533 26.2319 47.5731C26.6079 47.1928 27.0612 46.9001 27.5605 46.7154C28.0598 46.5306 28.5927 46.4584 29.1225 46.5036Z" fill="#FF6347"/>
<path id="Vector_3" d="M23.486 44.7962C23.8048 44.4719 24.0488 44.0803 24.2008 43.6496C24.3526 43.2188 24.4087 42.7594 24.3648 42.3042L24.3808 42.3195C24.3361 41.7835 24.4075 41.244 24.5902 40.7389C24.7728 40.2337 25.0623 39.7749 25.4383 39.3946C25.8144 39.0143 26.268 38.7216 26.7674 38.5371C27.2668 38.3525 27.8001 38.2804 28.3299 38.3259L28.3139 38.3106C28.9473 38.3706 29.5836 38.2316 30.1361 37.9123C30.6885 37.593 31.1301 37.1092 31.4007 36.5267C31.6713 35.9441 31.7579 35.2914 31.6484 34.6574C31.5388 34.0233 31.2386 33.4388 30.7888 32.9838C30.3389 32.5286 29.7613 32.2249 29.1346 32.1141C28.5079 32.0034 27.8627 32.0908 27.2869 32.3647C26.7112 32.6384 26.2329 33.0853 25.9173 33.6442C25.6018 34.203 25.4643 34.8468 25.5237 35.4876L25.5085 35.4723C25.5532 36.0082 25.4818 36.5475 25.2992 37.0525C25.1166 37.5576 24.8274 38.0163 24.4515 38.3966C24.0756 38.7768 23.6223 39.0695 23.123 39.2542C22.6238 39.4389 22.0908 39.5112 21.5611 39.466L21.5763 39.4813C21.0587 39.4343 20.5378 39.5203 20.0619 39.7312C19.5859 39.9421 19.1702 40.2712 18.8535 40.6879C18.5367 41.1046 18.329 41.5955 18.2496 42.1151C18.1702 42.6346 18.2218 43.166 18.3994 43.66C18.5772 44.154 18.8751 44.5947 19.266 44.9411C19.6568 45.2876 20.1278 45.5286 20.6351 45.6419C21.1425 45.7552 21.67 45.7371 22.1687 45.5893C22.6673 45.4415 23.121 45.1687 23.4877 44.7962H23.486Z" fill="#FF6347"/>
<path id="Vector_4" d="M49.5369 36.3104H52.0345V48.607H49.5369V36.3104Z" fill="#FF6347"/>
<path id="Vector_5" d="M53.4491 44.3963C53.4455 43.5126 53.7014 42.6478 54.1841 41.9113C54.6668 41.1748 55.3547 40.5999 56.1607 40.2593C56.9666 39.9187 57.8543 39.8277 58.7114 39.9979C59.5686 40.1681 60.3564 40.5919 60.9753 41.2155C61.5941 41.8391 62.0162 42.6345 62.1878 43.501C62.3596 44.3674 62.2731 45.2659 61.9397 46.0827C61.6063 46.8993 61.0408 47.5977 60.3148 48.0889C59.5887 48.5803 58.735 48.8426 57.8615 48.8426C57.2817 48.8493 56.7064 48.739 56.1693 48.5181C55.6321 48.2972 55.1438 47.9703 54.7329 47.5563C54.3222 47.1423 53.997 46.6497 53.7766 46.1071C53.5561 45.5645 53.4448 44.9829 53.4491 44.3963ZM59.7764 44.3963C59.7659 44.0154 59.6447 43.6461 59.428 43.3344C59.2113 43.0228 58.9085 42.7828 58.5576 42.6443C58.2067 42.5058 57.8233 42.4751 57.4552 42.5558C57.0871 42.6367 56.7507 42.8254 56.4882 43.0986C56.2255 43.3718 56.0484 43.7171 55.9788 44.0916C55.9091 44.4661 55.9502 44.853 56.0967 45.204C56.2433 45.5551 56.4888 45.8546 56.8027 46.0652C57.1166 46.2757 57.4849 46.388 57.8615 46.388C58.1194 46.395 58.376 46.3478 58.615 46.2494C58.854 46.1511 59.0703 46.0037 59.2502 45.8166C59.4302 45.6295 59.5698 45.4067 59.6603 45.1622C59.7509 44.9177 59.7904 44.6569 59.7764 44.3963Z" fill="#FF6347"/>
<path id="Vector_6" d="M72.2283 40.185V48.1824C72.2283 51.0122 70.0469 52.2084 67.8327 52.2084C67.0531 52.2674 66.2725 52.1081 65.5765 51.7479C64.8805 51.3878 64.2959 50.8406 63.8869 50.1665L66.0179 48.9201C66.1898 49.2715 66.4637 49.5614 66.8029 49.7509C67.142 49.9406 67.5304 50.0208 67.9159 49.981C68.1623 50.0155 68.4133 49.9936 68.6501 49.9167C68.887 49.84 69.1038 49.7103 69.2844 49.5372C69.465 49.3642 69.6049 49.1523 69.6937 48.9172C69.7824 48.6821 69.8177 48.4298 69.7971 48.179V47.4091C69.5046 47.7711 69.1324 48.0587 68.7102 48.2489C68.288 48.4391 67.8276 48.5264 67.3659 48.504C66.2676 48.469 65.2257 48.0029 64.4609 47.2044C63.6961 46.4059 63.2686 45.3377 63.2686 44.2258C63.2686 43.114 63.6961 42.0457 64.4609 41.2472C65.2257 40.4487 66.2676 39.9827 67.3659 39.9476C67.8276 39.9252 68.288 40.0125 68.7102 40.2027C69.1324 40.3928 69.5046 40.6805 69.7971 41.0426V40.1833L72.2283 40.185ZM69.7979 44.2271C69.8148 43.8198 69.7107 43.4169 69.4992 43.07C69.2877 42.7231 68.9784 42.4482 68.6112 42.2807C68.244 42.1131 67.8355 42.0605 67.4385 42.1298C67.0415 42.1991 66.6741 42.3869 66.3835 42.6693C66.0929 42.9516 65.8925 43.3154 65.808 43.7139C65.7236 44.1124 65.759 44.5274 65.9096 44.9055C66.0602 45.2835 66.3192 45.6073 66.6533 45.8351C66.9873 46.0629 67.3811 46.1844 67.7839 46.1839C68.0463 46.2025 68.3097 46.1652 68.557 46.0745C68.8043 45.9838 69.0301 45.8417 69.2198 45.6574C69.4096 45.473 69.559 45.2505 69.6586 45.0042C69.7582 44.7578 69.8057 44.4931 69.7979 44.2271Z" fill="#FF6347"/>
<path id="Vector_7" d="M73.6434 44.3963C73.6399 43.5126 73.8957 42.6478 74.3784 41.9113C74.8611 41.1748 75.549 40.5999 76.355 40.2593C77.1609 39.9187 78.0487 39.8277 78.9058 39.9979C79.7629 40.1681 80.5508 40.5919 81.1696 41.2155C81.7885 41.8391 82.2104 42.6345 82.3822 43.501C82.5538 44.3674 82.4675 45.2659 82.1341 46.0827C81.8006 46.8993 81.2351 47.5977 80.5091 48.0889C79.7831 48.5803 78.9292 48.8426 78.0559 48.8426C77.476 48.8493 76.9008 48.739 76.3636 48.5181C75.8264 48.2972 75.3381 47.9703 74.9273 47.5563C74.5165 47.1423 74.1913 46.6497 73.9709 46.1071C73.7504 45.5645 73.6391 44.9829 73.6434 44.3963ZM79.9707 44.3963C79.9602 44.0154 79.8391 43.6461 79.6223 43.3344C79.4056 43.0228 79.1028 42.7828 78.7519 42.6443C78.401 42.5058 78.0176 42.4751 77.6495 42.5558C77.2815 42.6367 76.9451 42.8254 76.6825 43.0986C76.4199 43.3718 76.2427 43.7171 76.1731 44.0916C76.1035 44.4661 76.1445 44.853 76.291 45.204C76.4375 45.5551 76.6832 45.8546 76.997 46.0652C77.3109 46.2757 77.6792 46.388 78.0559 46.388C78.3138 46.395 78.5703 46.3478 78.8094 46.2494C79.0484 46.1511 79.2647 46.0037 79.4446 45.8166C79.6244 45.6295 79.7641 45.4067 79.8547 45.1622C79.9452 44.9177 79.9847 44.6569 79.9707 44.3963Z" fill="#FF6347"/>
<path id="Vector_8" d="M83.6333 37.9277C83.6333 37.6278 83.7212 37.3347 83.8859 37.0854C84.0505 36.836 84.2846 36.6418 84.5584 36.527C84.8322 36.4122 85.1336 36.3822 85.4242 36.4407C85.7149 36.4992 85.982 36.6436 86.1916 36.8556C86.401 37.0676 86.5438 37.3378 86.6017 37.6319C86.6595 37.926 86.6298 38.2309 86.5163 38.5078C86.4029 38.7849 86.2109 39.0217 85.9644 39.1883C85.718 39.3549 85.4283 39.4438 85.1319 39.4438C84.7356 39.4398 84.3568 39.2788 84.0766 38.9953C83.7964 38.7118 83.6372 38.3285 83.6333 37.9277ZM83.8856 40.1849H86.384V48.6077H83.8822L83.8856 40.1849Z" fill="#FF6347"/>
<path id="Vector_9" d="M97.1686 44.3963C97.1976 44.953 97.1172 45.5099 96.9322 46.0351C96.7481 46.5604 96.4622 47.0434 96.0922 47.4566C95.7222 47.8698 95.2756 48.205 94.7775 48.4429C94.2795 48.6807 93.7393 48.8166 93.189 48.8426C92.7261 48.8681 92.2635 48.7892 91.8345 48.6114C91.4055 48.4336 91.0211 48.1616 90.709 47.8148V51.9761H88.2114V40.1849H90.709V40.9761C91.0213 40.6297 91.4058 40.3578 91.8347 40.1802C92.2636 40.0025 92.7262 39.9237 93.189 39.9492C93.7394 39.9751 94.2795 40.111 94.7775 40.3488C95.2765 40.5866 95.7231 40.922 96.0931 41.3353C96.4632 41.7486 96.7481 42.2318 96.9332 42.7571C97.1172 43.2825 97.1976 43.8396 97.1686 44.3963ZM94.671 44.3963C94.6607 44.0021 94.5365 43.6196 94.3131 43.2966C94.0889 42.9736 93.7765 42.7245 93.4137 42.5805C93.0509 42.4365 92.6541 42.4039 92.2731 42.4869C91.8921 42.5699 91.5436 42.7648 91.2715 43.0471C90.9994 43.3294 90.8156 43.6867 90.7432 44.0741C90.6708 44.4615 90.713 44.862 90.8644 45.2254C91.0159 45.5887 91.2698 45.8987 91.5946 46.1167C91.9194 46.3348 92.3005 46.4511 92.6902 46.451C92.9578 46.4631 93.2249 46.4177 93.474 46.3181C93.723 46.2183 93.9487 46.0665 94.1356 45.8725C94.3225 45.6785 94.4664 45.4467 94.5589 45.1923C94.6514 44.9379 94.6897 44.6667 94.671 44.3963Z" fill="#FF6347"/>
<path id="Vector_10" d="M104.876 46.0803C104.876 48.0175 103.212 48.8428 101.414 48.8428C100.687 48.9093 99.9581 48.7539 99.3199 48.3966C98.6817 48.0392 98.1641 47.4964 97.8342 46.8383L99.9973 45.5919C100.085 45.8961 100.273 46.1607 100.53 46.3415C100.788 46.5224 101.098 46.6085 101.41 46.5856C102.009 46.5856 102.309 46.4002 102.309 46.0641C102.309 45.1367 98.2136 45.6259 98.2136 42.712C98.2136 40.8751 99.745 39.9494 101.476 39.9494C102.128 39.9285 102.772 40.0847 103.343 40.4017C103.914 40.7186 104.391 41.1847 104.723 41.7514L102.592 42.9136C102.499 42.693 102.343 42.505 102.145 42.3732C101.946 42.2415 101.714 42.1717 101.476 42.1726C101.044 42.1726 100.778 42.3427 100.778 42.6439C100.78 43.6044 104.876 42.9638 104.876 46.0803Z" fill="#FF6347"/>
<path id="Vector_11" d="M113.999 40.1852V48.6081H111.502V47.816C111.214 48.1656 110.848 48.441 110.435 48.6197C110.021 48.7983 109.571 48.8751 109.122 48.8438C107.44 48.8438 106.01 47.6314 106.01 45.3555V40.1852H108.508V44.9854C108.488 45.186 108.51 45.3889 108.574 45.5798C108.639 45.7706 108.744 45.945 108.882 46.0908C109.019 46.2366 109.186 46.3502 109.372 46.4237C109.558 46.4974 109.757 46.5292 109.956 46.5169C110.872 46.5169 111.505 45.9783 111.505 44.7821V40.1878L113.999 40.1852Z" fill="#FF6347"/>
<path id="Vector_12" d="M128.321 43.4361V48.6072H125.823V43.6547C125.823 42.8124 125.425 42.2739 124.626 42.2739C123.793 42.2739 123.326 42.8635 123.326 43.8572V48.6072H120.829V43.6547C120.829 42.8124 120.43 42.2739 119.63 42.2739C118.798 42.2739 118.332 42.8635 118.332 43.8572V48.6072H115.834V40.1843H118.332V40.9585C118.59 40.615 118.931 40.3427 119.32 40.1663C119.71 39.9898 120.137 39.915 120.563 39.9486C120.99 39.9275 121.416 40.0187 121.798 40.2134C122.18 40.4082 122.505 40.6997 122.744 41.0598C123.02 40.6832 123.387 40.3837 123.809 40.1893C124.231 39.995 124.696 39.9122 125.157 39.9486C127.069 39.9495 128.321 41.3303 128.321 43.4361Z" fill="#FF6347"/>
<path id="Vector_13" d="M130.434 40.1328C131.458 40.1328 132.288 39.2933 132.288 38.2577C132.288 37.2221 131.458 36.3825 130.434 36.3825C129.41 36.3825 128.58 37.2221 128.58 38.2577C128.58 39.2933 129.41 40.1328 130.434 40.1328Z" fill="#FF6347"/>
</g>
</g>
</svg>
