<svg width="84" height="84" viewBox="0 0 84 84" fill="none" xmlns="http://www.w3.org/2000/svg">
<g id="Play">
<path id="Fill 1" opacity="0.4" d="M83.6666 42.2124C83.6666 65.1663 64.9648 83.859 41.9999 83.859C19.035 83.859 0.333252 65.1663 0.333252 42.2124C0.333252 19.2183 19.035 0.525635 41.9999 0.525635C64.9648 0.525635 83.6666 19.2183 83.6666 42.2124Z" fill="#FF6347"/>
<path id="Fill 4" d="M58.6667 42.2126C58.6667 43.2656 58.3352 44.3227 57.6723 45.1692C57.5481 45.3353 56.968 46.0198 56.5123 46.4653L56.2637 46.7083C52.7836 50.3981 44.1248 55.9469 39.7332 57.7249C39.7332 57.7654 37.1231 58.8225 35.8802 58.859H35.7145C33.8087 58.859 32.0272 57.81 31.1158 56.1089C30.6186 55.1733 30.1629 52.4596 30.1214 52.4232C29.7486 49.989 29.5 46.2628 29.5 42.1721C29.5 37.8829 29.7486 33.9906 30.2043 31.601C30.2043 31.5605 30.66 29.3733 30.95 28.6443C31.4058 27.5953 32.2344 26.7002 33.2701 26.1332C34.0987 25.7322 34.9688 25.5256 35.8802 25.5256C36.8331 25.5702 38.6146 26.1737 39.3189 26.4572C43.959 28.2393 52.825 34.0716 56.2223 37.6358C56.8023 38.2028 57.4238 38.8954 57.5895 39.0534C58.2938 39.9444 58.6667 41.038 58.6667 42.2126Z" fill="#FF6347"/>
</g>
</svg>
