<svg width="37" height="28" viewBox="0 0 37 28" fill="none" xmlns="http://www.w3.org/2000/svg">
<path id="Quotes" d="M8.40954 11.6733C7.99821 11.6733 7.60349 11.7346 7.21061 11.7905C7.33788 11.3721 7.46884 10.9464 7.67911 10.5641C7.88939 10.0086 8.21771 9.527 8.54419 9.04183C8.81718 8.51698 9.29859 8.16167 9.65274 7.71257C10.0235 7.2761 10.5289 6.98572 10.9291 6.6232C11.322 6.24444 11.8366 6.05506 12.2461 5.78813C12.674 5.54825 13.0466 5.28312 13.4451 5.15686L14.4392 4.75646L15.3135 4.40115L14.419 0.905762L13.3178 1.16548C12.9655 1.25205 12.5357 1.35306 12.0469 1.4739C11.5471 1.56408 11.014 1.81117 10.4201 2.03662C9.8335 2.29274 9.15472 2.46588 8.5239 2.8771C7.88939 3.27029 7.15712 3.59855 6.51154 4.1252C5.88625 4.66809 5.13184 5.13883 4.5748 5.82961C3.96611 6.4753 3.36481 7.15346 2.89814 7.9254C2.3577 8.66127 1.99065 9.46929 1.6033 10.2683C1.25284 11.0673 0.970631 11.8843 0.740068 12.6779C0.302919 14.2687 0.107401 15.7801 0.0317758 17.0733C-0.0309375 18.3683 0.0059527 19.445 0.0834221 20.2242C0.11109 20.5921 0.162736 20.9492 0.199626 21.1963L0.245739 21.4993L0.293696 21.4885C0.621763 22.987 1.37698 24.3641 2.47199 25.4604C3.56701 26.5567 4.95706 27.3275 6.48136 27.6836C8.00566 28.0397 9.60191 27.9665 11.0855 27.4726C12.569 26.9787 13.8793 26.0841 14.8646 24.8924C15.8499 23.7008 16.4701 22.2607 16.6534 20.7388C16.8367 19.2168 16.5756 17.6753 15.9003 16.2924C15.2251 14.9095 14.1632 13.7418 12.8376 12.9244C11.5119 12.1069 9.97674 11.6732 8.40954 11.6733ZM28.6991 11.6733C28.2878 11.6733 27.8931 11.7346 27.5002 11.7905C27.6275 11.3721 27.7584 10.9464 27.9687 10.5641C28.179 10.0086 28.5073 9.527 28.8338 9.04183C29.1068 8.51698 29.5882 8.16167 29.9423 7.71257C30.3131 7.2761 30.8185 6.98572 31.2187 6.6232C31.6116 6.24444 32.1262 6.05506 32.5357 5.78813C32.9637 5.54825 33.3362 5.28312 33.7347 5.15686L34.7288 4.75646L35.6031 4.40115L34.7086 0.905762L33.6074 1.16548C33.2551 1.25205 32.8253 1.35306 32.3365 1.4739C31.8367 1.56408 31.3036 1.81117 30.7097 2.03662C30.125 2.29454 29.4443 2.46588 28.8135 2.87891C28.179 3.27209 27.4467 3.60035 26.8011 4.127C26.1759 4.66989 25.4215 5.14063 24.8644 5.82961C24.2557 6.4753 23.6544 7.15346 23.1878 7.9254C22.6473 8.66127 22.2803 9.46929 21.8929 10.2683C21.5424 11.0673 21.2602 11.8843 21.0297 12.6779C20.5925 14.2687 20.397 15.7801 20.3214 17.0733C20.2587 18.3683 20.2956 19.445 20.373 20.2242C20.4007 20.5921 20.4523 20.9492 20.4892 21.1963L20.5353 21.4993L20.5833 21.4885C20.9114 22.987 21.6666 24.3641 22.7616 25.4604C23.8566 26.5567 25.2467 27.3275 26.771 27.6836C28.2953 28.0397 29.8915 27.9665 31.3751 27.4726C32.8586 26.9787 34.1689 26.0841 35.1542 24.8924C36.1395 23.7008 36.7597 22.2607 36.943 20.7388C37.1263 19.2168 36.8652 17.6753 36.1899 16.2924C35.5147 14.9095 34.4528 13.7418 33.1272 12.9244C31.8015 12.1069 30.2663 11.6732 28.6991 11.6733Z" fill="#FF6347"/>
</svg>
