<svg width="21" height="17" viewBox="0 0 21 17" fill="none" xmlns="http://www.w3.org/2000/svg">
<path id="Vector" d="M17.6782 2.25708C20.033 5.7439 21.196 9.67695 20.7613 14.2048C20.7594 14.2239 20.7495 14.2415 20.7339 14.2531C18.9506 15.5718 17.2228 16.3721 15.5193 16.9028C15.5061 16.9069 15.4919 16.9067 15.4787 16.9022C15.4656 16.8977 15.4542 16.8892 15.4461 16.8779C15.0525 16.3264 14.6949 15.745 14.3816 15.1345C14.3637 15.0985 14.3801 15.0552 14.4171 15.0411C14.985 14.8256 15.5251 14.5673 16.0445 14.2615C16.0854 14.2373 16.088 14.1783 16.0502 14.1499C15.94 14.0675 15.8308 13.9809 15.7263 13.8943C15.7067 13.8783 15.6804 13.8751 15.6582 13.8859C12.2859 15.4542 8.59158 15.4542 5.17931 13.8859C5.15716 13.8759 5.13083 13.8793 5.11181 13.8951C5.00755 13.9817 4.89808 14.0675 4.78888 14.1499C4.75108 14.1783 4.75421 14.2373 4.79539 14.2615C5.31484 14.5615 5.85488 14.8256 6.42203 15.0421C6.45878 15.0563 6.47624 15.0985 6.458 15.1345C6.15149 15.7458 5.79389 16.3272 5.39303 16.8787C5.37557 16.901 5.3469 16.9112 5.31979 16.9028C3.62435 16.3721 1.89658 15.5718 0.1133 14.2531C0.0984435 14.2415 0.0877574 14.2232 0.0861936 14.204C-0.277135 10.2875 0.463336 6.32189 3.16641 2.25629C3.17292 2.24553 3.18283 2.23713 3.1943 2.23214C4.52433 1.61741 5.94923 1.16515 7.43852 0.906868C7.46562 0.902668 7.49273 0.915268 7.5068 0.939416C7.69081 1.26752 7.90115 1.68828 8.04346 2.03213C9.61328 1.79065 11.2076 1.79065 12.8103 2.03213C12.9526 1.69563 13.1556 1.26752 13.3388 0.939416C13.3454 0.927436 13.3555 0.917839 13.3677 0.911994C13.38 0.906149 13.3938 0.904355 13.4071 0.906868C14.8972 1.16594 16.3221 1.6182 17.6511 2.23214C17.6628 2.23713 17.6724 2.24553 17.6782 2.25708ZM8.84153 9.70372C8.85795 8.54591 8.01974 7.58785 6.96754 7.58785C5.92395 7.58785 5.09382 8.53751 5.09382 9.70372C5.09382 10.8697 5.94037 11.8193 6.96754 11.8193C8.0114 11.8193 8.84153 10.8697 8.84153 9.70372ZM15.7698 9.70372C15.7862 8.54591 14.948 7.58785 13.8961 7.58785C12.8522 7.58785 12.0221 8.53751 12.0221 9.70372C12.0221 10.8697 12.8686 11.8193 13.8961 11.8193C14.948 11.8193 15.7698 10.8697 15.7698 9.70372Z" fill="white"/>
</svg>
