<svg width="18" height="17" viewBox="0 0 18 17" fill="none" xmlns="http://www.w3.org/2000/svg">
<path id="Vector" d="M4.4342 16.9058V6.10995H0.849018V16.9058H4.4342ZM2.64236 4.63622C3.89232 4.63622 4.67051 3.80723 4.67051 2.77123C4.64711 1.71162 3.89232 0.905762 2.66613 0.905762C1.43909 0.905762 0.637695 1.71162 0.637695 2.77113C0.637695 3.80714 1.4156 4.63613 2.61887 4.63613L2.64236 4.63622ZM6.41864 16.9058H10.0035V10.8775C10.0035 10.5553 10.0269 10.2322 10.1217 10.0021C10.3807 9.35716 10.9706 8.68957 11.9612 8.68957C13.2582 8.68957 13.7773 9.67949 13.7773 11.1309V16.9058H17.3621V10.7158C17.3621 7.3999 15.5937 5.85685 13.235 5.85685C11.3011 5.85685 10.4518 6.93866 9.97996 7.67548H10.0038V6.11033H6.41883C6.46562 7.1231 6.41864 16.9058 6.41864 16.9058Z" fill="white"/>
</svg>
