<svg width="150" height="86" viewBox="0 0 150 86" fill="none" xmlns="http://www.w3.org/2000/svg">
<g id="620cad38e924f072dad48385_logo-11%201.svg" opacity="0.6">
<path id="Vector" d="M26.833 54.1136H48.3196V32.3752H26.833V54.1136ZM44.184 41.1528H39.6437V36.5593H44.184V41.1528ZM30.9678 36.5593H35.5106V45.336H44.184V49.9295H30.9678V36.5593ZM62.3115 32.3752C60.1867 32.3752 58.1096 33.0128 56.3429 34.2071C54.5761 35.4014 53.1992 37.0989 52.386 39.085C51.5729 41.0711 51.3601 43.2565 51.7747 45.3649C52.1892 47.4733 53.2124 49.41 54.7149 50.9301C56.2173 52.4502 58.1316 53.4854 60.2156 53.9047C62.2996 54.3241 64.4597 54.1089 66.4231 53.2862C68.3858 52.4635 70.0638 51.0704 71.2443 49.283C72.4248 47.4956 73.055 45.3942 73.055 43.2445C73.0517 40.3628 71.9183 37.6001 69.9046 35.5625C67.8903 33.5248 65.1601 32.3786 62.3115 32.3752ZM62.3115 49.9295C61.0047 49.9295 59.7271 49.5374 58.6405 48.8029C57.5539 48.0683 56.7069 47.0242 56.2068 45.8027C55.7067 44.5812 55.5759 43.237 55.8309 41.9402C56.0858 40.6435 56.7151 39.4523 57.6392 38.5174C58.5633 37.5825 59.7407 36.9458 61.0224 36.6878C62.3042 36.4299 63.6328 36.5623 64.8405 37.0682C66.0474 37.5742 67.0797 38.4311 67.8059 39.5304C68.5315 40.6297 68.9194 41.9222 68.9194 43.2445C68.9168 45.0166 68.2196 46.7154 66.9811 47.9685C65.7426 49.2216 64.0632 49.9268 62.3115 49.9295ZM111.5 32.3752C109.374 32.3751 107.298 33.0124 105.531 34.2066C103.764 35.4009 102.387 37.0983 101.574 39.0844C100.76 41.0704 100.547 43.2559 100.961 45.3644C101.376 47.4728 102.399 49.4096 103.902 50.9298C105.404 52.45 107.318 53.4852 109.403 53.9047C111.487 54.3241 113.647 54.1089 115.61 53.2863C117.573 52.4637 119.251 51.0705 120.431 49.2831C121.612 47.4956 122.242 45.3942 122.242 43.2445C122.239 40.3629 121.106 37.6004 119.092 35.5628C117.078 33.5252 114.348 32.3789 111.5 32.3752ZM111.5 49.9295C110.193 49.9296 108.915 49.5377 107.829 48.8033C106.742 48.0688 105.895 47.0248 105.394 45.8032C104.894 44.5817 104.763 43.2376 105.018 41.9408C105.273 40.6439 105.902 39.4527 106.826 38.5177C107.75 37.5827 108.928 36.9459 110.21 36.6879C111.491 36.4299 112.82 36.5622 114.027 37.0682C115.234 37.5741 116.267 38.4309 116.993 39.5303C117.719 40.6297 118.106 41.9222 118.106 43.2445C118.104 45.0164 117.407 46.7151 116.169 47.9682C114.93 49.2213 113.251 49.9266 111.5 49.9295ZM86.9051 32.3752C84.7806 32.3752 82.7032 33.0128 80.9363 34.2071C79.1701 35.4014 77.793 37.0989 76.9798 39.085C76.1666 41.0711 75.954 43.2565 76.3683 45.3649C76.7827 47.4733 77.8059 49.41 79.3086 50.9301C80.8106 52.4502 82.7251 53.4854 84.809 53.9047C86.8935 54.3241 89.0535 54.1089 91.0162 53.2862C92.9796 52.4635 94.6576 51.0704 95.8381 49.283C97.0186 47.4956 97.6488 45.3942 97.6488 43.2445C97.6449 40.3628 96.5121 37.6001 94.4984 35.5625C92.4841 33.5248 89.7533 32.3786 86.9051 32.3752ZM86.9051 49.9295C85.6873 49.9301 84.4932 49.5903 83.4545 48.9477C82.4158 48.3051 81.5729 47.3845 81.0188 46.2877C80.464 45.1908 80.2204 43.9604 80.3138 42.7322C80.4066 41.504 80.8338 40.3257 81.5472 39.3274C82.2605 38.3292 83.2328 37.5497 84.3566 37.0753C85.4804 36.6007 86.7118 36.4496 87.9149 36.6384C89.1179 36.8272 90.2462 37.3487 91.1748 38.1454C92.1039 38.942 92.7966 39.9828 93.1775 41.1528H86.9051V45.336H93.1775C92.7412 46.6712 91.901 47.8333 90.7746 48.6578C89.6489 49.4823 88.295 49.9272 86.9051 49.9295Z" fill="#FF6347"/>
</g>
</svg>
