<svg width="150" height="86" viewBox="0 0 150 86" fill="none" xmlns="http://www.w3.org/2000/svg">
<g id="620cad38e924f0cdb8d48389_logo-3%20(1)%201.svg" opacity="0.6">
<path id="Vector" d="M57.0826 49.5076C56.5843 49.5349 56.0915 49.3916 55.6837 49.1008C55.5132 48.973 55.3761 48.8051 55.2842 48.6117C55.1923 48.4183 55.1482 48.2051 55.1559 47.9906V40.1346C55.1519 40.1013 55.1554 40.0676 55.1661 40.0358C55.1769 40.0041 55.1947 39.9754 55.2181 39.9517C55.2415 39.928 55.27 39.91 55.3013 39.8991C55.3326 39.8882 55.366 39.8847 55.3989 39.8888H56.8061C56.9653 39.8888 57.0407 39.9736 57.0407 40.1346V47.3804C57.0407 47.7025 57.1831 47.8635 57.4763 47.8635C57.6005 47.8687 57.7249 47.8544 57.8448 47.8211C58.0124 47.8211 58.1045 47.872 58.1129 48.0245L58.2385 49.0839C58.2446 49.1147 58.244 49.1466 58.2368 49.1772C58.2297 49.2079 58.2162 49.2366 58.1971 49.2615C58.178 49.2863 58.1539 49.3069 58.1264 49.3215C58.0989 49.3362 58.0685 49.3448 58.0375 49.3466C57.7293 49.4496 57.4072 49.5039 57.0826 49.5076Z" fill="#FF6347"/>
<path id="Vector_2" d="M64.9989 48.6007C64.292 49.1918 63.4033 49.5151 62.4861 49.5151C61.5689 49.5151 60.6802 49.1918 59.9731 48.6007C59.3516 47.9659 59.0029 47.1086 59.0029 46.2151C59.0029 45.3216 59.3516 44.4642 59.9731 43.8294C60.6816 43.2414 61.5697 42.92 62.4861 42.92C63.4025 42.92 64.2905 43.2414 64.9989 43.8294C65.6065 44.4701 65.9454 45.3233 65.9454 46.2108C65.9454 47.0984 65.6065 47.9516 64.9989 48.5922V48.6007ZM61.2966 47.482C61.6248 47.7828 62.0517 47.9493 62.4945 47.9493C62.9372 47.9493 63.3642 47.7828 63.6923 47.482C63.9893 47.1365 64.1529 46.6941 64.1529 46.2363C64.1529 45.7784 63.9893 45.3359 63.6923 44.9905C63.3642 44.6898 62.9372 44.5232 62.4945 44.5232C62.0517 44.5232 61.6248 44.6898 61.2966 44.9905C60.9996 45.3359 60.836 45.7784 60.836 46.2363C60.836 46.6941 60.9996 47.1365 61.2966 47.482Z" fill="#FF6347"/>
<path id="Vector_3" d="M73.6935 43.1345C73.8526 43.1345 73.928 43.2192 73.928 43.3802V49.4566C73.9428 49.8667 73.8668 50.2749 73.7064 50.6516C73.5453 51.0284 73.3036 51.3642 72.9982 51.6346C72.321 52.2188 71.4498 52.5217 70.5606 52.4821C69.7578 52.5106 68.9652 52.2887 68.2906 51.8465C68.0026 51.6551 67.7564 51.4059 67.5683 51.1143C67.3795 50.8228 67.2519 50.495 67.1933 50.1515C67.1933 49.982 67.1933 49.9057 67.4194 49.9057H68.8267C68.8866 49.9078 68.9446 49.9273 68.9936 49.9619C69.0425 49.9964 69.0806 50.0447 69.1031 50.1007C69.1946 50.358 69.3763 50.5722 69.6141 50.7024C69.904 50.8536 70.2262 50.9293 70.5523 50.9227C70.7488 50.9336 70.946 50.9047 71.1315 50.8378C71.3171 50.7709 71.4872 50.6672 71.6328 50.5329C71.7656 50.3923 71.8693 50.226 71.937 50.044C72.0046 49.8619 72.0349 49.6678 72.0265 49.4735V48.9396C71.5227 49.3145 70.9099 49.5084 70.2842 49.4905C69.8467 49.5065 69.4105 49.4331 69.002 49.2743C68.5928 49.1156 68.2197 48.8749 67.9053 48.5667C67.3015 47.9346 66.9639 47.0899 66.9639 46.2108C66.9639 45.3316 67.3015 44.4869 67.9053 43.8548C68.2216 43.5493 68.5947 43.311 69.0032 43.1538C69.4118 42.9966 69.8473 42.9238 70.2842 42.9395C70.9279 42.9223 71.5575 43.1287 72.0684 43.5243V43.3887C72.0646 43.3562 72.0678 43.3233 72.0781 43.2922C72.0884 43.2613 72.1058 43.233 72.1284 43.2094C72.1509 43.1859 72.178 43.1677 72.2083 43.1562C72.2385 43.1447 72.2708 43.1401 72.303 43.1429L73.6935 43.1345ZM70.4434 47.982C70.6592 47.9887 70.8738 47.9474 71.0723 47.8611C71.2707 47.7746 71.4479 47.6452 71.591 47.482C71.8693 47.1181 72.0207 46.671 72.0207 46.2108C72.0207 45.7505 71.8693 45.3034 71.591 44.9396C71.4479 44.7785 71.272 44.651 71.0755 44.5661C70.8783 44.4812 70.6657 44.4409 70.4517 44.448C70.2333 44.4411 70.0162 44.4822 69.8151 44.5685C69.6141 44.6548 69.4343 44.7844 69.2874 44.9481C68.9788 45.2961 68.817 45.7521 68.8351 46.2193C68.8202 46.6818 68.9788 47.133 69.279 47.482C69.4259 47.6452 69.6064 47.7744 69.8074 47.8607C70.0084 47.947 70.2256 47.9883 70.4434 47.982Z" fill="#FF6347"/>
<path id="Vector_4" d="M81.1577 48.601C80.4489 49.189 79.561 49.5104 78.6447 49.5104C77.7278 49.5104 76.8399 49.189 76.1318 48.601C75.5235 47.9589 75.1846 47.1043 75.1846 46.2153C75.1846 45.3264 75.5235 44.4718 76.1318 43.8297C76.8406 43.2432 77.7285 42.9228 78.6447 42.9228C79.5604 42.9228 80.4483 43.2432 81.1577 43.8297C81.7647 44.4703 82.1036 45.3235 82.1036 46.2111C82.1036 47.0987 81.7647 47.9519 81.1577 48.5925V48.601ZM77.4469 47.4823C77.6073 47.6369 77.7968 47.7577 78.0036 47.8377C78.2104 47.9176 78.4315 47.9553 78.6531 47.9484C78.8728 47.9542 79.0919 47.916 79.2975 47.836C79.503 47.756 79.6912 47.6358 79.851 47.4823C80.1429 47.1345 80.3033 46.6929 80.3033 46.2365C80.3033 45.7801 80.1429 45.3385 79.851 44.9907C79.6912 44.8372 79.503 44.717 79.2975 44.637C79.0919 44.557 78.8728 44.5188 78.6531 44.5246C78.4315 44.5177 78.2104 44.5554 78.0036 44.6354C77.7968 44.7154 77.6073 44.8362 77.4469 44.9907C77.1544 45.3385 76.9939 45.7801 76.9939 46.2365C76.9939 46.6929 77.1544 47.1345 77.4469 47.4823Z" fill="#FF6347"/>
<path id="Vector_5" d="M85.128 41.6937C84.907 41.8897 84.6229 41.9978 84.3284 41.9978C84.0339 41.9978 83.7498 41.8897 83.5281 41.6937C83.4282 41.5978 83.3477 41.4822 83.2936 41.354C83.2388 41.2258 83.2104 41.0876 83.2104 40.9479C83.2104 40.8082 83.2388 40.67 83.2936 40.5418C83.3477 40.4136 83.4282 40.298 83.5281 40.2022C83.7523 40.011 84.0352 39.9061 84.3284 39.9061C84.6209 39.9061 84.9045 40.011 85.128 40.2022C85.2286 40.298 85.3085 40.4136 85.3632 40.5418C85.418 40.67 85.4463 40.8082 85.4463 40.9479C85.4463 41.0876 85.418 41.2258 85.3632 41.354C85.3085 41.4822 85.2286 41.5978 85.128 41.6937ZM85.3039 49.5073C84.8065 49.532 84.3142 49.389 83.9051 49.1005C83.7375 48.9709 83.6029 48.8024 83.5126 48.6093C83.4218 48.4161 83.3786 48.2039 83.3857 47.9903V43.3802C83.3818 43.3469 83.3851 43.3131 83.396 43.2814C83.407 43.2497 83.4244 43.2209 83.4482 43.1972C83.4714 43.1735 83.4998 43.1556 83.5313 43.1446C83.5629 43.1338 83.5958 43.1302 83.6286 43.1344H85.0359C85.195 43.1344 85.2704 43.2192 85.2704 43.3802V47.3802C85.2704 47.7022 85.4128 47.8632 85.6976 47.8632C85.8246 47.8678 85.9522 47.8536 86.0746 47.8208C86.2421 47.8208 86.3343 47.8717 86.3426 48.0242L86.4683 49.0836C86.4747 49.1145 86.4741 49.1464 86.467 49.177C86.4599 49.2076 86.4464 49.2363 86.427 49.2612C86.4077 49.2861 86.3839 49.3066 86.3562 49.3213C86.3291 49.336 86.2988 49.3445 86.2672 49.3463C85.9567 49.4499 85.6313 49.5042 85.3039 49.5073Z" fill="#FF6347"/>
<path id="Vector_6" d="M91.6455 42.9316C92.0849 42.914 92.5237 42.986 92.9354 43.1432C93.3465 43.3004 93.7228 43.5397 94.0412 43.8468C94.634 44.49 94.9632 45.3364 94.9632 46.2155C94.9632 47.0946 94.634 47.941 94.0412 48.5842C93.7248 48.8941 93.3491 49.1357 92.9374 49.2945C92.525 49.4532 92.0862 49.5259 91.6455 49.5079C91.0185 49.5221 90.4038 49.3287 89.8947 48.9571V52.0164C89.8947 52.1775 89.811 52.2537 89.6518 52.2537H88.2446C88.2123 52.2599 88.1795 52.2579 88.1486 52.2481C88.117 52.2384 88.0886 52.221 88.0654 52.1977C88.0429 52.1743 88.0255 52.1456 88.0158 52.114C88.0061 52.0824 88.0042 52.049 88.01 52.0164V45.0672C88.0203 44.9993 88.0139 44.9299 87.9926 44.8647C87.9714 44.7995 87.9353 44.7402 87.8869 44.6916C87.8393 44.643 87.7806 44.6065 87.7162 44.5849C87.6518 44.5633 87.5835 44.5572 87.5158 44.5672H87.2394C87.0551 44.5672 86.9629 44.4994 86.9629 44.3638V43.3638C86.9591 43.3019 86.9758 43.2404 87.0106 43.1895C87.0454 43.1386 87.097 43.1015 87.1556 43.0841C87.4456 42.9776 87.7523 42.9258 88.0603 42.9316C88.3676 42.9041 88.6763 42.97 88.9463 43.121C89.2169 43.272 89.436 43.5011 89.5764 43.779C89.8464 43.5029 90.1692 43.2854 90.5249 43.1397C90.8806 42.994 91.2621 42.9232 91.6455 42.9316ZM90.3387 47.4825C90.4882 47.6404 90.668 47.7661 90.8664 47.852C91.0649 47.9378 91.2788 47.9821 91.4947 47.9821C91.7112 47.9821 91.9245 47.9378 92.1236 47.852C92.322 47.7661 92.5012 47.6404 92.6506 47.4825C92.9657 47.1275 93.1307 46.6623 93.1114 46.1859C93.1333 45.7091 92.9677 45.2428 92.6506 44.8892C92.5012 44.7313 92.322 44.6057 92.1236 44.5198C91.9245 44.4339 91.7112 44.3897 91.4947 44.3897C91.2788 44.3897 91.0649 44.4339 90.8664 44.5198C90.668 44.6057 90.4882 44.7313 90.3387 44.8892C90.0339 45.2491 89.8754 45.7124 89.8947 46.1859C89.878 46.659 90.0365 47.1214 90.3387 47.4825Z" fill="#FF6347"/>
<path id="Vector_7" d="M98.9165 49.5072C98.1645 49.5385 97.419 49.3565 96.7637 48.9817C96.5008 48.8216 96.2772 48.6035 96.109 48.3439C95.9408 48.0841 95.8326 47.7895 95.792 47.4817C95.792 47.3122 95.8506 47.2275 96.0349 47.2275H97.2663C97.3249 47.2298 97.3816 47.2484 97.4306 47.2813C97.4796 47.3142 97.5182 47.3601 97.5427 47.4139C97.7186 47.8716 98.1793 48.1004 98.9165 48.1004C99.1736 48.1122 99.43 48.0599 99.662 47.9478C99.7425 47.9112 99.8115 47.8532 99.8617 47.78C99.9113 47.707 99.941 47.6214 99.9468 47.5326C99.9468 47.3122 99.8128 47.1597 99.5447 47.058C99.227 46.9509 98.8984 46.8799 98.5646 46.8461C98.1696 46.8009 97.7779 46.7301 97.3919 46.6343C97.0169 46.5483 96.6754 46.3505 96.4119 46.0664C96.2572 45.8734 96.1432 45.6501 96.0768 45.4105C96.0104 45.1709 95.9943 44.9201 96.0278 44.6737C96.0613 44.4272 96.1451 44.1905 96.2733 43.9781C96.4015 43.7658 96.571 43.5824 96.772 43.4393C97.3758 43.0502 98.0846 42.8606 98.7992 42.8969C99.4919 42.8732 100.177 43.0465 100.776 43.3969C101.018 43.5354 101.226 43.7267 101.386 43.9569C101.545 44.1871 101.652 44.4503 101.697 44.7274C101.697 44.8969 101.622 44.9817 101.471 44.9817H100.232C100.179 44.9848 100.128 44.9719 100.083 44.9447C100.038 44.9175 100.002 44.8772 99.9803 44.8291C99.8978 44.6284 99.7419 44.4676 99.5447 44.38C99.323 44.2624 99.075 44.2041 98.8243 44.2105C98.5788 44.197 98.334 44.2465 98.1123 44.3546C98.0343 44.385 97.9673 44.4385 97.9196 44.5079C97.872 44.5774 97.8455 44.6598 97.8443 44.7444C97.8501 44.8603 97.8919 44.9714 97.9641 45.0613C98.0363 45.1514 98.1355 45.2155 98.2463 45.2444C98.5685 45.367 98.9029 45.4524 99.2431 45.4986C99.6349 45.5508 100.024 45.6243 100.407 45.719C100.783 45.805 101.125 46.0027 101.388 46.2868C101.529 46.4432 101.638 46.6264 101.708 46.8257C101.778 47.025 101.809 47.2365 101.798 47.4478C101.806 47.7408 101.737 48.0306 101.601 48.289C101.464 48.5475 101.264 48.7657 101.019 48.9224C100.393 49.3289 99.66 49.5329 98.9165 49.5072Z" fill="#FF6347"/>
<path id="Vector_8" d="M110.653 49.0835C110.658 49.1135 110.656 49.1443 110.649 49.1739C110.642 49.2035 110.629 49.2313 110.611 49.2558C110.593 49.2803 110.571 49.3009 110.544 49.3164C110.519 49.3319 110.49 49.342 110.46 49.3462C110.155 49.4471 109.835 49.5014 109.513 49.5072C109.195 49.5405 108.874 49.4902 108.58 49.361C108.287 49.2318 108.031 49.0282 107.838 48.7699C107.247 49.2846 106.482 49.5486 105.702 49.5072C105.341 49.524 104.979 49.4641 104.641 49.3313C104.304 49.1985 103.998 48.9957 103.742 48.736C103.488 48.4638 103.292 48.1426 103.163 47.7917C103.035 47.4407 102.978 47.0673 102.996 46.6936V43.38C102.996 43.219 103.072 43.1342 103.231 43.1342H104.638C104.797 43.1342 104.873 43.219 104.873 43.38V46.4393C104.857 46.8205 104.986 47.1932 105.233 47.4817C105.356 47.6139 105.506 47.7178 105.672 47.7865C105.838 47.8552 106.017 47.8871 106.196 47.88C106.38 47.8881 106.564 47.8594 106.736 47.7954C106.908 47.7313 107.067 47.6334 107.201 47.5072C107.329 47.374 107.428 47.2159 107.493 47.0424C107.558 46.8689 107.587 46.6839 107.578 46.4987V43.38C107.578 43.219 107.654 43.1342 107.813 43.1342H109.237C109.396 43.1342 109.472 43.219 109.472 43.38V47.3716C109.472 47.7021 109.614 47.8631 109.89 47.8631C110.021 47.8682 110.15 47.8539 110.276 47.8207C110.307 47.8117 110.341 47.8101 110.373 47.816C110.405 47.8219 110.436 47.8351 110.463 47.8547C110.49 47.8742 110.512 47.8997 110.527 47.929C110.542 47.9583 110.551 47.9909 110.552 48.0241L110.653 49.0835Z" fill="#FF6347"/>
<path id="Vector_9" d="M123.963 49.0839C123.97 49.1142 123.971 49.1458 123.964 49.1766C123.959 49.2072 123.946 49.2361 123.928 49.2612C123.909 49.2863 123.885 49.3071 123.858 49.3218C123.831 49.3365 123.801 49.345 123.77 49.3466C123.459 49.449 123.134 49.5033 122.807 49.5077C122.308 49.5336 121.816 49.3904 121.408 49.1009C121.231 48.9768 121.087 48.8106 120.989 48.6169C120.892 48.4232 120.843 48.2082 120.846 47.9907V45.9991C120.864 45.6191 120.738 45.2464 120.495 44.9567C120.377 44.8243 120.232 44.7198 120.07 44.6509C119.908 44.5821 119.732 44.5505 119.556 44.5584C119.398 44.5524 119.24 44.5827 119.095 44.6474C118.95 44.712 118.821 44.809 118.719 44.9313C118.498 45.2153 118.385 45.5701 118.4 45.9313V49.0585C118.4 49.2195 118.325 49.3043 118.166 49.3043H116.75C116.717 49.3084 116.684 49.3048 116.653 49.294C116.621 49.2831 116.593 49.2651 116.569 49.2413C116.546 49.2177 116.528 49.1889 116.518 49.1572C116.507 49.1255 116.503 49.0917 116.507 49.0585V45.9991C116.525 45.6232 116.409 45.2532 116.181 44.9567C116.078 44.8322 115.951 44.7319 115.806 44.6631C115.661 44.5942 115.503 44.5585 115.343 44.5584C115.172 44.5514 115.001 44.5811 114.843 44.6453C114.684 44.7095 114.541 44.807 114.422 44.9313C114.182 45.2062 114.059 45.5653 114.078 45.9313V49.0585C114.082 49.0917 114.079 49.1255 114.068 49.1572C114.057 49.1889 114.039 49.2177 114.016 49.2413C113.992 49.2651 113.964 49.2831 113.933 49.294C113.902 49.3048 113.868 49.3084 113.835 49.3043H112.47C112.311 49.3043 112.235 49.2195 112.235 49.0585V45.0669C112.245 44.9989 112.239 44.9296 112.218 44.8643C112.197 44.7991 112.161 44.7399 112.112 44.6913C112.065 44.6427 112.006 44.6062 111.941 44.5846C111.877 44.5629 111.808 44.5569 111.741 44.5669H111.465C111.28 44.5669 111.188 44.4991 111.188 44.3635V43.3634C111.184 43.3016 111.2 43.2401 111.236 43.1892C111.271 43.1383 111.322 43.1011 111.381 43.0838C111.671 42.9773 111.978 42.9256 112.286 42.9313C112.581 42.9057 112.878 42.9655 113.143 43.1034C113.406 43.2413 113.626 43.452 113.777 43.7109C114.059 43.44 114.394 43.2308 114.76 43.0967C115.126 42.9625 115.516 42.9062 115.904 42.9313C116.282 42.9126 116.658 42.9842 117.003 43.1403C117.348 43.2964 117.652 43.5325 117.889 43.8295C118.167 43.5248 118.507 43.2861 118.887 43.1307C119.266 42.9754 119.676 42.9072 120.084 42.9313C120.45 42.914 120.815 42.9735 121.157 43.1063C121.499 43.2391 121.809 43.4421 122.069 43.7025C122.324 43.9741 122.521 44.2951 122.649 44.6462C122.778 44.9973 122.834 45.3711 122.815 45.7449V47.3805C122.815 47.7025 122.957 47.8636 123.225 47.8636C123.355 47.8696 123.485 47.8553 123.611 47.8212C123.784 47.8212 123.876 47.889 123.887 48.0246L123.963 49.0839Z" fill="#FF6347"/>
<path id="Vector_10" d="M25.7365 42.0326C26.3545 39.5194 27.7859 37.2878 29.8026 35.6928C31.8193 34.098 34.3055 33.2315 36.8652 33.2315C39.425 33.2315 41.9111 34.098 43.9278 35.6928C45.9445 37.2878 47.3758 39.5194 47.9938 42.0326H46.9886C45.2929 42.0073 43.6319 42.52 42.2389 43.4987C42.1586 43.5576 42.0746 43.6114 41.9876 43.6598H41.8703C41.7834 43.6114 41.6995 43.5576 41.619 43.4987C40.2137 42.5426 38.5587 42.032 36.8652 42.032C35.1717 42.032 33.5166 42.5426 32.1113 43.4987C32.031 43.5576 31.947 43.6114 31.86 43.6598H31.7427C31.6557 43.6114 31.5718 43.5576 31.4914 43.4987C30.0985 42.52 28.4375 42.0073 26.7417 42.0326H25.7365ZM45.1792 47.3464C45.6952 46.9398 46.3348 46.7271 46.9886 46.7447H48.3373V44.0242H46.9886C45.837 44.01 44.7117 44.3727 43.7803 45.0581C43.2561 45.449 42.6221 45.66 41.9709 45.66C41.3197 45.66 40.6856 45.449 40.1615 45.0581C39.2064 44.3855 38.0707 44.025 36.9071 44.025C35.7435 44.025 34.6077 44.3855 33.6527 45.0581C33.1285 45.449 32.4945 45.66 31.8433 45.66C31.192 45.66 30.558 45.449 30.0338 45.0581C29.0909 44.364 27.9495 44.0009 26.7836 44.0242H25.3931V46.7447H26.7417C27.3956 46.7271 28.0351 46.9398 28.5511 47.3464C29.5044 48.0194 30.6389 48.3803 31.8014 48.3803C32.9638 48.3803 34.0983 48.0194 35.0516 47.3464C35.5683 46.941 36.2074 46.7285 36.861 46.7447C37.515 46.7257 38.155 46.9385 38.6704 47.3464C39.6254 48.019 40.7612 48.3795 41.9248 48.3795C43.0885 48.3795 44.2242 48.019 45.1792 47.3464ZM45.1792 52.211C45.6952 51.8044 46.3348 51.5918 46.9886 51.6093H48.3373V48.8888H46.9886C45.837 48.8747 44.7117 49.2373 43.7803 49.9228C43.2561 50.3137 42.6221 50.5246 41.9709 50.5246C41.3197 50.5246 40.6856 50.3137 40.1615 49.9228C39.2064 49.2501 38.0707 48.8896 36.9071 48.8896C35.7435 48.8896 34.6077 49.2501 33.6527 49.9228C33.1285 50.3137 32.4945 50.5246 31.8433 50.5246C31.192 50.5246 30.558 50.3137 30.0338 49.9228C29.0909 49.2286 27.9495 48.8655 26.7836 48.8888H25.3931V51.6093H26.7417C27.3956 51.5918 28.0351 51.8044 28.5511 52.211C29.5044 52.8841 30.6389 53.2449 31.8014 53.2449C32.9638 53.2449 34.0983 52.8841 35.0516 52.211C35.5683 51.8056 36.2074 51.5931 36.861 51.6093C37.515 51.5903 38.155 51.8032 38.6704 52.211C39.6254 52.8836 40.7612 53.2442 41.9248 53.2442C43.0885 53.2442 44.2242 52.8836 45.1792 52.211Z" fill="#FF6347"/>
</g>
</svg>
