<svg width="150" height="86" viewBox="0 0 150 86" fill="none" xmlns="http://www.w3.org/2000/svg">
<g id="620cad38e924f04cbfd48386_logo-4%201.svg" opacity="0.6">
<path id="Vector" d="M32.7134 47.3038H35.2264V59.77H32.7134V47.3038Z" fill="#FF6347"/>
<path id="Vector_2" d="M36.6838 55.4991C36.6821 54.6036 36.9431 53.7279 37.4336 52.9825C37.9241 52.2372 38.6221 51.6559 39.4393 51.312C40.2565 50.9682 41.1562 50.8774 42.0244 51.051C42.8926 51.2247 43.6905 51.655 44.3169 52.2875C44.9433 52.9202 45.3701 53.7265 45.5434 54.6046C45.7167 55.4826 45.6286 56.393 45.2903 57.2204C44.952 58.0479 44.3787 58.7552 43.6429 59.2528C42.9071 59.7504 42.042 60.0161 41.1569 60.0161C40.5683 60.0229 39.9844 59.9107 39.4392 59.6862C38.894 59.4618 38.3985 59.1294 37.982 58.7087C37.5653 58.288 37.2359 57.7874 37.0131 57.2363C36.7901 56.6851 36.6782 56.0945 36.6838 55.4991ZM43.1003 55.4991C43.0904 55.1125 42.968 54.7375 42.7486 54.421C42.5292 54.1043 42.2223 53.8603 41.8664 53.7192C41.5106 53.5782 41.1215 53.5464 40.7479 53.6279C40.3743 53.7095 40.0328 53.9006 39.7659 54.1775C39.4992 54.4544 39.319 54.8047 39.248 55.1847C39.177 55.5646 39.2183 55.9573 39.3667 56.3136C39.5152 56.6699 39.7642 56.974 40.0826 57.1879C40.401 57.4018 40.7747 57.5159 41.1569 57.516C41.4184 57.5234 41.6786 57.476 41.921 57.3765C42.1634 57.2771 42.3829 57.1279 42.5654 56.9384C42.7481 56.7489 42.8899 56.5231 42.9819 56.2754C43.074 56.0277 43.1142 55.7633 43.1003 55.4991Z" fill="#FF6347"/>
<path id="Vector_3" d="M55.7324 51.2273V59.346C55.7324 62.219 53.5126 63.4308 51.2677 63.4308C50.4783 63.4902 49.6879 63.3287 48.9832 62.964C48.2784 62.5993 47.6864 62.0454 47.272 61.363L49.4332 60.1003C49.6047 60.45 49.8761 60.7396 50.2121 60.9314C50.5481 61.1234 50.9334 61.2088 51.3179 61.1766C51.571 61.2193 51.8304 61.2025 52.0761 61.1277C52.3218 61.053 52.5472 60.9221 52.7349 60.7452C52.9227 60.5683 53.0679 60.3502 53.1591 60.1076C53.2503 59.865 53.2853 59.6044 53.2613 59.346V58.5579C52.9659 58.9256 52.5889 59.2178 52.1611 59.4106C51.7332 59.6035 51.2664 59.6917 50.7986 59.6681C49.6611 59.6681 48.5703 59.211 47.7659 58.3972C46.9616 57.5835 46.5098 56.4798 46.5098 55.329C46.5098 54.1782 46.9616 53.0746 47.7659 52.2609C48.5703 51.4472 49.6611 50.99 50.7986 50.99C51.2662 50.9684 51.7322 51.0575 52.1598 51.2502C52.5874 51.4429 52.9645 51.734 53.2613 52.1002V51.2527L55.7324 51.2273ZM53.2613 55.329C53.278 54.9169 53.1725 54.5091 52.9583 54.1581C52.7441 53.807 52.431 53.5289 52.0594 53.3592C51.6876 53.1897 51.2744 53.1365 50.8725 53.2064C50.4707 53.2764 50.0987 53.4664 49.8044 53.7519C49.5101 54.0374 49.307 54.4054 49.2211 54.8087C49.1352 55.2119 49.1705 55.632 49.3224 56.0148C49.4744 56.3976 49.736 56.7257 50.0737 56.9569C50.4114 57.188 50.8097 57.3118 51.2174 57.3121C51.4836 57.3311 51.7507 57.2936 52.0016 57.2018C52.2525 57.1101 52.4816 56.9661 52.6742 56.7793C52.8668 56.5925 53.0185 56.3668 53.1196 56.1171C53.2207 55.8673 53.269 55.5988 53.2613 55.329Z" fill="#FF6347"/>
<path id="Vector_4" d="M57.1818 55.4989C57.1802 54.6034 57.4411 53.7277 57.9316 52.9824C58.4221 52.237 59.1201 51.6557 59.9374 51.3118C60.7545 50.968 61.6542 50.8772 62.5224 51.0508C63.3907 51.2245 64.1885 51.6548 64.8148 52.2874C65.4411 52.92 65.8683 53.7263 66.0416 54.6044C66.215 55.4825 66.1267 56.3928 65.7884 57.2202C65.4501 58.0477 64.8766 58.755 64.1409 59.2526C63.4051 59.7502 62.54 60.0159 61.6549 60.0159C61.0663 60.0227 60.4823 59.9105 59.9372 59.686C59.392 59.4616 58.8966 59.1292 58.48 58.7085C58.0634 58.2878 57.7339 57.7872 57.511 57.2361C57.2882 56.6849 57.1762 56.0943 57.1818 55.4989ZM63.5983 55.4989C63.5884 55.1123 63.4661 54.7373 63.2466 54.4208C63.0272 54.1041 62.7203 53.8601 62.3644 53.7191C62.0086 53.578 61.6195 53.5462 61.2459 53.6277C60.8723 53.7093 60.5307 53.9004 60.264 54.1773C59.9972 54.4542 59.8171 54.8045 59.746 55.1845C59.675 55.5644 59.7163 55.9571 59.8648 56.3134C60.0133 56.6697 60.2622 56.9738 60.5806 57.1877C60.899 57.4016 61.2727 57.5157 61.6549 57.5159C61.915 57.5209 62.1733 57.4716 62.4138 57.3711C62.6543 57.2707 62.8717 57.1211 63.0524 56.9319C63.2332 56.7426 63.3735 56.5177 63.4645 56.2711C63.5556 56.0246 63.5954 55.7617 63.5816 55.4989H63.5983Z" fill="#FF6347"/>
<path id="Vector_5" d="M67.292 48.9391C67.292 48.6341 67.3816 48.3358 67.5491 48.0822C67.7166 47.8286 67.9544 47.6309 68.2334 47.5141C68.5118 47.3974 68.8185 47.3669 69.1142 47.4264C69.41 47.4859 69.6812 47.6328 69.8945 47.8485C70.1078 48.0642 70.2528 48.339 70.3121 48.6382C70.3707 48.9374 70.3404 49.2475 70.2251 49.5293C70.1097 49.8112 69.9145 50.0521 69.6639 50.2216C69.4132 50.3911 69.1181 50.4815 68.8165 50.4815C68.4132 50.4793 68.0266 50.3161 67.7411 50.0273C67.4557 49.7385 67.2946 49.3475 67.292 48.9391ZM67.5517 51.2273H70.0646V59.7698H67.5517V51.2273Z" fill="#FF6347"/>
<path id="Vector_6" d="M81.0219 55.4991C81.0522 56.0638 80.9723 56.629 80.786 57.1621C80.5998 57.6953 80.3105 58.186 79.9361 58.6058C79.5618 59.0256 79.1088 59.3663 78.6036 59.6084C78.0985 59.8504 77.5514 59.989 76.9927 60.0161C76.5243 60.0388 76.0559 59.9573 75.6222 59.7772C75.1879 59.5971 74.7981 59.3228 74.4798 58.9737V63.2111H71.9668V51.2278H74.4798V52.0329C74.7981 51.6838 75.1879 51.4095 75.6222 51.2294C76.0559 51.0493 76.5243 50.9678 76.9927 50.9905C77.5501 51.0177 78.0972 51.1559 78.6017 51.3975C79.1062 51.639 79.5586 51.979 79.9329 52.3979C80.3079 52.8168 80.5966 53.3064 80.7835 53.8386C80.9703 54.3708 81.0515 54.9351 81.0219 55.4991ZM78.5089 55.4991C78.4992 55.1014 78.3742 54.7152 78.1494 54.3887C77.9245 54.0621 77.61 53.8094 77.2447 53.6618C76.88 53.5142 76.4798 53.4782 76.0945 53.5583C75.7092 53.6384 75.3554 53.831 75.0777 54.1124C74.7994 54.3937 74.6093 54.7514 74.53 55.1412C74.4508 55.5309 74.4862 55.9356 74.6325 56.3051C74.7781 56.6746 75.0281 56.9926 75.3509 57.22C75.6738 57.4473 76.0552 57.5738 76.4483 57.5839C76.7228 57.6015 76.9979 57.5595 77.2544 57.4608C77.5114 57.362 77.7447 57.2088 77.9387 57.0112C78.132 56.8138 78.2814 56.5767 78.3768 56.3158C78.4728 56.055 78.5121 55.7765 78.4922 55.4991H78.5089Z" fill="#FF6347"/>
<path id="Vector_7" d="M88.8466 57.2106C88.8466 59.1768 87.1706 60.0158 85.3284 60.0158C84.5919 60.0817 83.8528 59.9232 83.2065 59.5608C82.5603 59.1983 82.0357 58.6484 81.7007 57.9818L83.896 56.7191C83.9849 57.0274 84.1756 57.2955 84.436 57.479C84.6969 57.6625 85.0114 57.7502 85.3284 57.7276C85.9399 57.7276 86.2414 57.5327 86.2414 57.1937C86.2414 56.253 82.0531 56.753 82.0531 53.8038C82.0531 51.9394 83.6112 50.9987 85.4038 50.9987C86.0649 50.9783 86.7195 51.1373 87.3001 51.4592C87.8807 51.7811 88.3652 52.2541 88.7035 52.8292L86.5011 53.9987C86.4032 53.7749 86.244 53.5845 86.0417 53.4506C85.8394 53.3168 85.6035 53.2451 85.3619 53.2445C84.9263 53.2445 84.6583 53.414 84.6583 53.7275C84.6918 54.7021 88.8466 54.0496 88.8466 57.2106Z" fill="#FF6347"/>
<path id="Vector_8" d="M98.0942 51.2278V59.7703H95.5812V58.9737C95.2886 59.3276 94.9181 59.6066 94.4987 59.7877C94.0792 59.9689 93.6236 60.0471 93.1687 60.016C91.4934 60.016 90.0107 58.7872 90.0107 56.4736V51.2278H92.5237V56.1007C92.5018 56.3084 92.5257 56.5184 92.594 56.7156C92.6616 56.9127 92.7724 57.0921 92.9174 57.2406C93.063 57.3891 93.239 57.503 93.4329 57.5741C93.6269 57.6452 93.8343 57.6717 94.0399 57.6516C94.9613 57.6516 95.6063 57.1092 95.6063 55.8973V51.2278H98.0942Z" fill="#FF6347"/>
<path id="Vector_9" d="M112.619 54.5322V59.7696H110.106V54.7525C110.106 53.9051 109.696 53.3457 108.891 53.3457C108.087 53.3457 107.568 53.9474 107.568 54.9559V59.7696H105.055V54.7525C105.055 53.9051 104.653 53.3457 103.84 53.3457C103.028 53.3457 102.525 53.9474 102.525 54.9559V59.7696H100.012V51.2271H102.525V52.0152C102.788 51.6672 103.133 51.391 103.528 51.2119C103.923 51.0328 104.356 50.9565 104.787 50.9898C105.221 50.9685 105.652 51.0612 106.039 51.2587C106.427 51.4561 106.757 51.7518 106.998 52.1169C107.279 51.7352 107.65 51.4316 108.078 51.2346C108.506 51.0374 108.976 50.9532 109.444 50.9898C111.354 50.9898 112.619 52.3966 112.619 54.5322Z" fill="#FF6347"/>
<path id="Vector_10" d="M114.764 51.176C115.8 51.176 116.64 50.3261 116.64 49.2777C116.64 48.2293 115.8 47.3794 114.764 47.3794C113.727 47.3794 112.887 48.2293 112.887 49.2777C112.887 50.3261 113.727 51.176 114.764 51.176Z" fill="#FF6347"/>
<path id="Vector_11" d="M61.1526 40.8374C66.0059 40.8374 69.9398 36.8571 69.9398 31.9471C69.9398 27.0372 66.0059 23.0569 61.1526 23.0569C56.2995 23.0569 52.3652 27.0372 52.3652 31.9471C52.3652 36.8571 56.2995 40.8374 61.1526 40.8374Z" fill="#FF6347"/>
<path id="Vector_12" d="M80.7961 40.8374C85.6495 40.8374 89.5834 36.8571 89.5834 31.9471C89.5834 27.0372 85.6495 23.0569 80.7961 23.0569C75.9433 23.0569 72.0088 27.0372 72.0088 31.9471C72.0088 36.8571 75.9433 40.8374 80.7961 40.8374Z" fill="#FF6347"/>
<path id="Vector_13" d="M50.2963 23.0568H32.73V40.8288H50.2963V23.0568Z" fill="#FF6347"/>
</g>
</svg>
