<svg width="150" height="86" viewBox="0 0 150 86" fill="none" xmlns="http://www.w3.org/2000/svg">
<g id="620cad38e924f0aec7d4830c_logo-10%202.svg" opacity="0.6">
<path id="Vector" d="M9.12207 26.4346V56.5988H142.482V26.4346H9.12207ZM140.8 54.8972H72.6812V28.1362H140.8V54.8972Z" fill="#FF6347"/>
<path id="Vector_2" d="M16.2092 46.5692V36.5409H19.6302V43.8986H25.6648V46.5692H16.2092Z" fill="white"/>
<path id="Vector_3" d="M39.1532 41.4853C39.1532 44.6784 37.1837 46.7228 32.4988 46.7228C28.2436 46.7228 25.8318 44.96 25.8318 41.4853C25.8318 38.4063 28.1309 36.3116 32.4988 36.3116C36.9348 36.3116 39.1532 38.2404 39.1532 41.4853ZM35.7188 41.5236C35.7188 40.0773 35.1251 38.9176 32.4862 38.9176C30.0744 38.9176 29.2906 39.9522 29.2906 41.5236C29.2906 43.1206 30.0096 44.1551 32.4971 44.1551C35.0006 44.1551 35.7188 43.0567 35.7188 41.5236Z" fill="white"/>
<path id="Vector_4" d="M49.7362 46.5699L49.6479 45.5982C48.5036 46.4246 47.1106 46.8223 45.7081 46.723C43.5998 46.723 41.844 46.084 40.8592 44.7942C40.2098 43.8526 39.8817 42.7223 39.9249 41.5748C39.8881 40.4515 40.2274 39.3486 40.8878 38.4448C41.8843 37.1932 43.6907 36.3629 46.38 36.3629C49.4739 36.3629 51.292 37.3209 52.0741 38.9306C52.242 39.3096 52.3405 39.7164 52.365 40.131H49.0921C49.0097 39.8791 48.8562 39.657 48.6506 39.4921C47.9986 39.0549 47.2201 38.8526 46.4406 38.9178C45.9834 38.8617 45.5196 38.9045 45.0799 39.0432C44.6402 39.182 44.2347 39.4135 43.89 39.7226C43.4987 40.2646 43.315 40.9318 43.3728 41.6004C43.3275 42.2383 43.4964 42.873 43.8521 43.4015C44.2 43.7293 44.6134 43.9777 45.0643 44.1297C45.5152 44.2818 45.9932 44.3341 46.4658 44.2829C47.4047 44.3601 48.3366 44.0672 49.0668 43.4653C49.2238 43.2669 49.3318 43.0337 49.3822 42.7847H45.8603V40.6296H52.4508V46.5699H49.7362Z" fill="white"/>
<path id="Vector_5" d="M66.7321 41.4855C66.7321 44.6785 64.7617 46.7229 60.0777 46.7229C55.8225 46.7229 53.4106 44.9601 53.4106 41.4855C53.4106 38.4064 55.7098 36.3118 60.0777 36.3118C64.5103 36.3118 66.7321 38.2405 66.7321 41.4855ZM63.2976 41.5237C63.2976 40.0774 62.7039 38.9178 60.065 38.9178C57.6532 38.9178 56.8695 39.9523 56.8695 41.5237C56.8695 43.1207 57.5893 44.1553 60.076 44.1553C62.5786 44.1553 63.2976 43.0569 63.2976 41.5237Z" fill="white"/>
<path id="Vector_6" d="M78.4434 46.5306V36.5023H80.8821V46.5306H78.4434Z" fill="#FF6347"/>
<path id="Vector_7" d="M93.4051 42.3407C92.787 43.1583 91.7232 43.5318 90.2238 43.5412C89.9076 43.5412 85.7155 43.5284 85.7155 43.5284V46.5309H83.3289V36.5025H90.2246C90.7774 36.4434 91.3362 36.5027 91.8647 36.6766C92.3933 36.8504 92.8798 37.1349 93.2924 37.5116C93.8369 38.2298 94.1023 39.1253 94.0378 40.0282C94.093 40.8494 93.8696 41.6652 93.4051 42.3407ZM91.4482 39.0711C91.1959 38.6882 90.6518 38.4755 89.731 38.4755H85.7028V41.5282H89.7049C90.6897 41.5282 91.2085 41.324 91.4482 40.9275C91.5908 40.6483 91.652 40.3337 91.6248 40.0206C91.6461 39.694 91.5854 39.3674 91.4482 39.0711Z" fill="#FF6347"/>
<path id="Vector_8" d="M101.07 46.6845C96.5749 46.6845 95.1995 44.9829 95.1995 43.2992H97.7494C97.7494 44.1295 98.8735 44.7557 101.184 44.7557C103.482 44.7557 104.088 44.3465 104.088 43.682C104.088 42.941 103.634 42.7113 101.499 42.4688C101.079 42.4305 99.9349 42.2901 99.5051 42.2263C96.4777 41.8809 95.3116 40.9739 95.3116 39.3515C95.3116 37.6397 97.0168 36.3499 100.717 36.3499C104.732 36.3499 106.273 37.9468 106.273 39.6076H103.75C103.75 38.7644 102.803 38.2786 100.568 38.2786C98.2699 38.2786 97.7774 38.5977 97.7774 39.2238C97.7774 39.8756 98.282 40.0797 100.721 40.3733C101.277 40.4507 102.514 40.5911 102.854 40.6285C105.431 40.8965 106.592 41.8417 106.592 43.5153C106.588 45.5087 104.821 46.6845 101.07 46.6845Z" fill="#FF6347"/>
<path id="Vector_9" d="M113.776 46.6712C110.481 46.6712 108.334 45.355 108.334 42.5874V36.5025H110.745V42.6214C110.745 43.8866 111.768 44.7288 113.877 44.7288C115.783 44.7288 116.92 43.9376 116.92 42.6214V36.5025H119.306V42.8146C119.306 45.3304 117.311 46.6712 113.776 46.6712Z" fill="#FF6347"/>
<path id="Vector_10" d="M132.374 46.531V39.837L129.28 46.531H126.932L123.927 39.837V46.531H121.656V36.5027H124.732L128.141 44.142L131.626 36.5027H134.654V46.531H132.374Z" fill="#FF6347"/>
</g>
</svg>
