<svg width="150" height="86" viewBox="0 0 150 86" fill="none" xmlns="http://www.w3.org/2000/svg">
<g id="620cad38e924f08454d48388_logo-9%201%20(1).svg" opacity="0.6">
<path id="Vector" d="M74.7342 47.7991H70.4452V36.1985H74.7342V47.7991ZM70.8641 47.3753H74.3153V36.6223H70.8641V47.3753ZM80.7023 47.7991H76.4991V36.1985H85.28C86.5378 36.0955 87.7905 36.4527 88.8099 37.2054C89.2487 37.6116 89.5889 38.1149 89.8041 38.676C90.0187 39.2372 90.1025 39.8409 90.049 40.4403C90.1115 41.4758 89.7861 42.4973 89.1366 43.3006C88.3685 44.1921 87.09 44.6515 85.338 44.6676C84.8966 44.6795 81.5884 44.6676 80.7043 44.6676L80.7023 47.7991ZM76.916 47.3753H80.2835V44.2396H80.4936C80.5361 44.2396 84.8308 44.2532 85.3277 44.2396C86.9605 44.2252 88.1339 43.8159 88.8202 43.0167C89.3982 42.2898 89.6849 41.3701 89.6244 40.4394C89.6759 39.9024 89.6044 39.3606 89.4156 38.856C89.2268 38.3515 88.9252 37.8977 88.5354 37.53C87.5901 36.8436 86.4334 36.5214 85.2742 36.6214H76.9179L76.916 47.3753ZM84.3901 42.0615H80.2545V38.9038H84.4178C84.7129 38.8625 85.0138 38.8973 85.2922 39.0051C85.5706 39.1128 85.8174 39.2898 86.0094 39.5199C86.184 39.8139 86.2665 40.1546 86.2459 40.4971C86.2614 40.8149 86.1937 41.1314 86.0487 41.414C85.8503 41.6563 85.5931 41.8428 85.3032 41.9556C85.0126 42.0684 84.6981 42.1037 84.3901 42.0581V42.0615ZM80.6734 41.6378H84.3901C85.077 41.6378 85.5029 41.4929 85.6911 41.1945C85.7948 40.9777 85.8419 40.7375 85.8277 40.4971C85.8464 40.2445 85.7923 39.992 85.6718 39.7699L85.6672 39.7623C85.4675 39.4656 85.0712 39.3275 84.4178 39.3275H80.6734V41.6378ZM97.6926 47.9703C93.9313 47.9703 91.6863 47.0253 90.8313 45.082C90.6914 44.7066 90.5961 44.3157 90.5484 43.9176L90.5117 43.6735H94.9862L95.0158 43.8514C95.05 44.0322 95.126 44.2022 95.2368 44.3481C95.4134 44.5642 96.003 44.9269 97.96 44.9269C100.313 44.9269 100.313 44.5091 100.313 44.2845C100.313 43.9057 100.04 43.776 98.1217 43.5692L97.7576 43.5345C97.0353 43.4658 96.1222 43.3785 95.7053 43.3421C92.187 43.0201 90.616 41.9141 90.616 39.7572C90.616 37.4918 93.2889 36.0282 97.4264 36.0282C100.802 36.0282 102.976 36.9282 103.888 38.7054C104.105 39.1188 104.25 39.5665 104.318 40.0292L104.348 40.2674H99.8673L99.8493 40.0758C99.8312 39.9262 99.7681 39.7857 99.6682 39.6741C99.5007 39.447 98.971 39.0716 97.3278 39.0716C95.3097 39.0716 95.0313 39.3326 95.0313 39.614C95.0313 39.9894 95.6692 40.1225 97.7119 40.3437C98.5637 40.414 99.9337 40.5564 100.403 40.614C103.352 40.9378 104.669 42.0166 104.669 44.1133C104.669 45.8719 103.458 47.9703 97.6926 47.9703ZM91.0007 44.0972C91.0426 44.3767 91.1148 44.6506 91.216 44.9142C91.995 46.6846 94.1143 47.5465 97.6926 47.5465C100.685 47.5465 104.253 46.9533 104.253 44.1133C104.253 42.2548 103.089 41.3344 100.358 41.0352C99.8892 40.9776 98.5283 40.8361 97.6777 40.7649C95.4997 40.5259 94.6144 40.3987 94.6144 39.614C94.6144 38.8021 95.5687 38.6478 97.3291 38.6478C98.721 38.6478 99.6192 38.9021 100.001 39.4148C100.104 39.5411 100.183 39.6868 100.232 39.8436H103.862C103.79 39.5158 103.674 39.1993 103.519 38.9021C102.681 37.2757 100.635 36.4519 97.4284 36.4519C93.5454 36.4519 91.0368 37.7495 91.0368 39.7572C91.0368 41.6725 92.4448 42.6183 95.7433 42.92C96.1622 42.9565 97.0746 43.0438 97.7982 43.1133L98.1655 43.148C99.9472 43.3379 100.733 43.4565 100.733 44.2845C100.733 45.1761 99.7165 45.3507 97.9619 45.3507C96.3381 45.3507 95.3129 45.104 94.9166 44.6184C94.7948 44.4635 94.7027 44.2867 94.6453 44.0972H91.0007ZM112.627 47.9559C108.254 47.9559 105.841 46.1668 105.841 42.9175V36.1985H110.073V42.9175C110.073 44.032 111.059 44.671 112.777 44.671C114.419 44.671 115.439 44.004 115.439 42.9319V36.1985H119.627V43.2735C119.631 46.249 117.077 47.9559 112.624 47.9559H112.627ZM106.26 36.6223V42.9175C106.26 46.9329 110.246 47.5321 112.627 47.5321C115.087 47.5321 119.215 46.9787 119.215 43.2735V36.6223H115.864V42.9319C115.864 44.2455 114.654 45.0947 112.784 45.0947C110.829 45.0947 109.661 44.2811 109.661 42.9175V36.6223H106.26ZM137.376 47.7991H133.382V42.5616L131.116 47.7991H127.633L125.391 42.5717V47.7991H121.382V36.1985H126.655L129.394 42.5946L132.266 36.1985H137.381L137.376 47.7991ZM133.801 47.3753H136.957V36.6223H132.532L129.381 43.6387L126.377 36.6223H121.798V47.3753H124.969V40.5326L127.901 47.3779H130.833L133.796 40.5428L133.801 47.3753ZM16.3988 36.4104H12.584V47.5872H23.1254V44.6117H16.3988V36.4104ZM30.8254 36.1562C25.956 36.1562 23.3952 38.491 23.3952 41.9192C23.3952 45.7922 26.0833 47.7567 30.8254 47.7567C36.0459 47.7567 38.2415 45.4786 38.2415 41.9192C38.2415 38.3046 35.7644 36.1545 30.8254 36.1545V36.1562ZM30.8112 39.0605C31.1427 39.0589 31.4739 39.0785 31.803 39.119L27.5384 43.4336C27.3365 42.9718 27.2381 42.4706 27.2502 41.9658C27.2502 40.2123 28.1231 39.0588 30.8112 39.0588V39.0605ZM30.8254 44.8981C30.506 44.8995 30.1869 44.8814 29.8696 44.8439L34.1418 40.5216C34.3361 40.9758 34.429 41.4677 34.4141 41.9624C34.4141 43.6684 33.6099 44.8964 30.8254 44.8964V44.8981ZM45.7999 43.3726H49.7261C49.6683 43.6482 49.5479 43.9065 49.3742 44.1269C48.5603 44.7978 47.5215 45.1242 46.4751 45.0379C45.9484 45.0949 45.4157 45.0367 44.9131 44.8673C44.4106 44.6978 43.95 44.421 43.5624 44.0557C43.1654 43.4666 42.9768 42.7591 43.0272 42.048C42.9629 41.3028 43.168 40.5593 43.6043 39.9555C44.153 39.3284 45.082 39.058 46.4474 39.058C47.3162 38.9852 48.1839 39.2109 48.9102 39.6987C49.1391 39.8827 49.3103 40.13 49.4027 40.4106H53.0442C53.0177 39.9483 52.9078 39.4947 52.72 39.0724C51.8479 37.2783 49.8208 36.2104 46.3737 36.2104C43.3756 36.2104 41.3635 37.1359 40.2519 38.5317C39.5177 39.5396 39.1409 40.7686 39.1822 42.02C39.1347 43.2997 39.5018 44.56 40.2276 45.6092C41.3258 47.0499 43.2818 47.7584 45.6324 47.7584C47.1951 47.8687 48.7471 47.4258 50.0227 46.5058L50.1215 47.5872H53.1464V40.9666H45.7999V43.3726ZM61.7318 36.1536C56.8632 36.1536 54.3016 38.4885 54.3016 41.9166C54.3016 45.7897 56.9888 47.7542 61.7318 47.7542C66.9533 47.7542 69.1487 45.4761 69.1487 41.9166C69.1487 38.3046 66.6718 36.1545 61.7318 36.1545V36.1536ZM61.7184 39.058C62.0412 39.057 62.3637 39.0757 62.6842 39.1139L58.4363 43.4141C58.2409 42.9574 58.1457 42.4632 58.1574 41.9658C58.154 40.2123 59.0303 39.0588 61.7184 39.0588V39.058ZM61.7318 44.8956C61.404 44.8969 61.0764 44.8777 60.7509 44.8379L65.0376 40.5004C65.2387 40.9606 65.3353 41.4609 65.3199 41.9641C65.3211 43.6684 64.5204 44.8964 61.7318 44.8964V44.8956Z" fill="#FF6347"/>
</g>
</svg>
