<svg width="69" height="51" viewBox="0 0 69 51" fill="none" xmlns="http://www.w3.org/2000/svg">
<g id="3 User">
<path id="Fill 1" d="M34.3408 33.3066C23.5596 33.3066 14.4629 35.0684 14.4629 41.8676C14.4629 48.6696 23.6184 50.3694 34.3408 50.3694C45.122 50.3694 54.2188 48.6077 54.2188 41.8085C54.2188 35.0064 45.0633 33.3066 34.3408 33.3066Z" fill="#FF6347"/>
<path id="Fill 3" opacity="0.4" d="M34.3405 26.8284C41.6409 26.8284 47.4946 20.941 47.4946 13.5986C47.4946 6.25347 41.6409 0.368896 34.3405 0.368896C27.0402 0.368896 21.1865 6.25347 21.1865 13.5986C21.1865 20.941 27.0402 26.8284 34.3405 26.8284Z" fill="#FF6347"/>
<path id="Fill 6" opacity="0.4" d="M62.8998 16.6789C64.7885 9.24934 59.251 2.57678 52.1997 2.57678C51.433 2.57678 50.6999 2.66121 49.9836 2.80474C49.8885 2.82725 49.7821 2.87509 49.7262 2.95952C49.6618 3.06646 49.7094 3.20999 49.7793 3.30286C51.8975 6.29158 53.1147 9.93038 53.1147 13.8365C53.1147 17.5795 51.9983 21.0691 50.0396 23.965C49.8381 24.2633 50.0172 24.6657 50.3725 24.7276C50.865 24.8149 51.3687 24.8599 51.8835 24.874C57.0181 25.0091 61.6266 21.6855 62.8998 16.6789Z" fill="#FF6347"/>
<path id="Fill 8" d="M68.2784 34.1721C67.3382 32.1571 65.069 30.7753 61.6189 30.0971C59.9904 29.6974 55.5833 29.1346 51.484 29.2106C51.4225 29.219 51.3889 29.2612 51.3833 29.2894C51.3749 29.3288 51.3917 29.3963 51.4728 29.4385C53.3672 30.3813 60.6899 34.4816 59.7693 43.1298C59.7301 43.5041 60.0295 43.8277 60.4017 43.7714C62.2037 43.5125 66.8402 42.5107 68.2784 39.3897C69.0731 37.7405 69.0731 35.824 68.2784 34.1721Z" fill="#FF6347"/>
<path id="Fill 11" opacity="0.4" d="M19.0144 2.80657C18.3009 2.66023 17.565 2.57861 16.7983 2.57861C9.74698 2.57861 4.20947 9.25117 6.10101 16.6808C7.37136 21.6873 11.9799 25.0109 17.1145 24.8758C17.6293 24.8617 18.1358 24.8139 18.6255 24.7295C18.9808 24.6676 19.1599 24.2651 18.9584 23.9668C16.9997 21.0682 15.8833 17.5813 15.8833 13.8384C15.8833 9.9294 17.1033 6.29059 19.2215 3.30469C19.2886 3.21182 19.339 3.06829 19.2718 2.96135C19.2159 2.87411 19.1123 2.82908 19.0144 2.80657Z" fill="#FF6347"/>
<path id="Fill 13" d="M7.37986 30.0962C3.92976 30.7744 1.66327 32.1562 0.723101 34.1712C-0.074367 35.8232 -0.074367 37.7397 0.723101 39.3916C2.16134 42.5098 6.79785 43.5145 8.59985 43.7706C8.972 43.8269 9.2686 43.506 9.22943 43.1289C8.30884 34.4836 15.6316 30.3833 17.5287 29.4405C17.607 29.3955 17.6238 29.3307 17.6154 29.2885C17.6098 29.2604 17.5791 29.2182 17.5175 29.2125C13.4154 29.1337 9.01117 29.6966 7.37986 30.0962Z" fill="#FF6347"/>
</g>
</svg>
