<svg width="57" height="63" viewBox="0 0 57 63" fill="none" xmlns="http://www.w3.org/2000/svg">
<g id="Document">
<path id="Path" opacity="0.4" d="M41.5969 0.119263H15.4062C5.90625 0.119263 0.375 5.68176 0.375 15.213V47.4943C0.375 57.1818 5.90625 62.6193 15.4062 62.6193H41.5969C51.25 62.6193 56.625 57.1818 56.625 47.4943V15.213C56.625 5.68176 51.25 0.119263 41.5969 0.119263Z" fill="#FF6347"/>
<path id="Combined Shape" fill-rule="evenodd" clip-rule="evenodd" d="M16.25 14.6506V14.6819C14.9031 14.6819 13.8125 15.7756 13.8125 17.1194C13.8125 18.4631 14.9031 19.5569 16.25 19.5569H25.5906C26.9375 19.5569 28.0312 18.4631 28.0312 17.085C28.0312 15.7444 26.9375 14.6506 25.5906 14.6506H16.25ZM40.7502 33.681H16.2502C14.9033 33.681 13.8127 32.5872 13.8127 31.2435C13.8127 29.8997 14.9033 28.8029 16.2502 28.8029H40.7502C42.0939 28.8029 43.1877 29.8997 43.1877 31.2435C43.1877 32.5872 42.0939 33.681 40.7502 33.681ZM40.75 47.9632H16.25C15.3125 48.0882 14.4062 47.6194 13.9062 46.8382C13.4062 46.0257 13.4062 44.9945 13.9062 44.2132C14.4062 43.4007 15.3125 42.9632 16.25 43.057H40.75C41.9969 43.182 42.9375 44.2445 42.9375 45.5257C42.9375 46.7726 41.9969 47.8382 40.75 47.9632Z" fill="#FF6347"/>
</g>
</svg>
