<svg width="63" height="63" viewBox="0 0 63 63" fill="none" xmlns="http://www.w3.org/2000/svg">
<g id="Graph">
<path id="Path" d="M25.7274 11.2303C25.8865 11.5543 25.9916 11.9012 26.0387 12.2579L26.9088 25.1951L27.3407 31.6977C27.3452 32.3664 27.4501 33.0308 27.6521 33.6694C28.1737 34.9085 29.4286 35.6961 30.7939 35.6412L51.5979 34.2804C52.4988 34.2655 53.3687 34.6025 54.0164 35.217C54.5561 35.7292 54.9045 36.3992 55.0143 37.1198L55.0511 37.5574C54.1902 49.4784 45.4349 59.4213 33.5386 61.988C21.6424 64.5547 9.44332 59.1327 3.56472 48.6658C1.86996 45.625 0.811407 42.2826 0.451193 38.8349C0.300714 37.8142 0.234455 36.7833 0.25306 35.7523C0.234481 22.9716 9.33584 11.9223 22.076 9.25857C23.6094 9.01981 25.1126 9.83155 25.7274 11.2303Z" fill="#FF6347"/>
<path id="Path_2" opacity="0.4" d="M34.2188 0.121945C48.4684 0.484468 60.4447 10.7312 62.75 24.5328L62.728 24.6346L62.6651 24.7827L62.6739 25.1893C62.6412 25.7279 62.4333 26.2461 62.0749 26.6646C61.7016 27.1007 61.1916 27.3976 60.63 27.5128L60.2875 27.5598L36.2851 29.115C35.4867 29.1938 34.6917 28.9363 34.098 28.4067C33.6032 27.9654 33.2869 27.3697 33.1975 26.7278L31.5865 2.7602C31.5584 2.67916 31.5584 2.59131 31.5865 2.51026C31.6085 1.84961 31.8993 1.22513 32.3939 0.776353C32.8885 0.327572 33.5458 0.0918836 34.2188 0.121945Z" fill="#FF6347"/>
</g>
</svg>
